<?xml version="1.0" encoding="utf-8"?>
<!-- Generator: Adobe Illustrator 16.2.0, SVG Export Plug-In . SVG Version: 6.00 Build 0)  -->
<!DOCTYPE svg PUBLIC "-//W3C//DTD SVG 1.1//EN" "http://www.w3.org/Graphics/SVG/1.1/DTD/svg11.dtd">
<svg version="1.1" id="Layer_1" xmlns="http://www.w3.org/2000/svg" xmlns:xlink="http://www.w3.org/1999/xlink" x="0px" y="0px"
	 width="90px" height="90px" viewBox="0 0 90 90" enable-background="new 0 0 90 90" xml:space="preserve">
<g>
	<path fill="#0068DD" d="M69,39.826c0-2.417-1.972-4.374-4.375-4.374H50.84l2.092-9.964C52.986,25.271,53,25.028,53,24.785
		c0-0.891-0.364-1.714-0.958-2.309l-2.309-2.295L35.367,34.534c-0.796,0.81-1.283,1.904-1.283,3.106v21.818
		c0,2.417,1.958,4.361,4.361,4.361H58.09c1.809,0,3.349-1.094,4.01-2.66l6.589-15.379c0.203-0.5,0.311-1.026,0.311-1.593V39.826
		L69,39.826z"/>
	<rect x="21" y="37.64" fill="#FF5B00" width="8.723" height="26.18"/>
</g>
</svg>
