<?xml version="1.0" encoding="utf-8"?>
<!-- Generator: Adobe Illustrator 16.2.0, SVG Export Plug-In . SVG Version: 6.00 Build 0)  -->
<!DOCTYPE svg PUBLIC "-//W3C//DTD SVG 1.1//EN" "http://www.w3.org/Graphics/SVG/1.1/DTD/svg11.dtd">
<svg version="1.1" id="Layer_1" xmlns="http://www.w3.org/2000/svg" xmlns:xlink="http://www.w3.org/1999/xlink" x="0px" y="0px"
	 width="90px" height="90px" viewBox="0 0 90 90" enable-background="new 0 0 90 90" xml:space="preserve">
<g>
	<path fill-rule="evenodd" clip-rule="evenodd" fill="#0068DD" d="M20.813,60.02v-5.769c0-6.105,9.537-11.117,21.6-11.522
		c-0.918,2.256-1.432,4.674-1.432,7.2c0,3.715,1.081,7.213,2.877,10.091H20.813z M35.754,33.692c-4.499-4.499-4.499-11.807,0-16.318
		c4.512-4.499,11.82-4.499,16.318,0c4.065,4.079,4.458,10.442,1.175,14.954c-2.418,0.931-4.66,2.364-6.606,4.308
		c-0.053,0.041-0.094,0.095-0.148,0.149C42.751,37.636,38.671,36.61,35.754,33.692z"/>
	<path fill-rule="evenodd" clip-rule="evenodd" fill="#FF5B00" d="M57.259,74.797c-0.838-0.81-1.257-1.837-1.257-3.093
		c0-1.202,0.419-2.228,1.257-3.066c0.824-0.851,1.877-1.27,3.134-1.27c1.243,0,2.296,0.419,3.147,1.27
		c0.851,0.838,1.284,1.864,1.284,3.066c0,1.256-0.433,2.284-1.284,3.093C62.689,75.595,61.636,76,60.393,76
		C59.136,76,58.083,75.595,57.259,74.797z M56.678,66.355v-2.31c0-1.729,0.243-3.161,0.716-4.295
		c0.486-1.121,1.094-2.053,1.81-2.796c0.729-0.756,1.445-1.405,2.148-1.972c0.729-0.567,1.351-1.162,1.865-1.756
		C63.743,52.631,64,51.915,64,51.091c0-0.878-0.284-1.594-0.864-2.148c-0.581-0.567-1.418-0.851-2.513-0.851
		c-1.364,0-2.377,0.446-3.04,1.31c-0.675,0.877-0.999,2.134-0.999,3.755h-7.228c0-2.634,0.473-4.85,1.432-6.646
		c0.959-1.784,2.283-3.134,3.971-4.039c1.703-0.905,3.648-1.364,5.863-1.364c2.283,0,4.214,0.432,5.768,1.31
		c1.567,0.878,2.77,2.067,3.58,3.566c0.81,1.499,1.216,3.201,1.216,5.106c0,1.418-0.216,2.607-0.635,3.566s-0.946,1.77-1.567,2.431
		c-0.648,0.675-1.296,1.284-1.945,1.851c-0.554,0.459-1.067,0.945-1.54,1.419c-0.487,0.486-0.878,1.026-1.189,1.621
		c-0.297,0.594-0.459,1.297-0.459,2.121v2.256H56.678z"/>
</g>
</svg>
