<?xml version="1.0" encoding="utf-8"?>
<!-- Generator: Adobe Illustrator 16.2.0, SVG Export Plug-In . SVG Version: 6.00 Build 0)  -->
<!DOCTYPE svg PUBLIC "-//W3C//DTD SVG 1.1//EN" "http://www.w3.org/Graphics/SVG/1.1/DTD/svg11.dtd">
<svg version="1.1" id="Layer_1" xmlns="http://www.w3.org/2000/svg" xmlns:xlink="http://www.w3.org/1999/xlink" x="0px" y="0px"
	 width="90px" height="90px" viewBox="0 0 90 90" enable-background="new 0 0 90 90" xml:space="preserve">
<g>
	<path fill="#0068DD" d="M63.305,37.881l4.223,10.584h-8.459L63.305,37.881z M26.618,37.881l4.236,10.584h-8.472L26.618,37.881
		 M44.962,23.074c1.56,0,2.824,1.264,2.824,2.824c0,1.56-1.264,2.824-2.824,2.824c-1.56,0-2.824-1.264-2.824-2.824
		C42.138,24.338,43.402,23.074,44.962,23.074 M44.962,17.426c-3.591,0-6.778,2.259-7.961,5.648h-17.43v5.648h5.501l-8.325,19.743
		c-1.332,5.648,2.824,8.472,9.871,8.472c7.061,0,11.458-2.824,9.871-8.472l-8.311-19.743h8.795c0.928,2.394,2.77,4.223,5.164,5.164
		v31.51H16.747v5.648h56.43v-5.648H47.786v-31.55c2.394-0.901,4.223-2.73,5.124-5.124h8.836l-8.325,19.743
		c-1.332,5.648,2.824,8.472,9.884,8.472c7.047,0,11.458-2.824,9.872-8.472l-8.324-19.743h5.5v-5.648H52.937
		C51.726,19.685,48.539,17.426,44.962,17.426L44.962,17.426z"/>
	<g>
		<path fill-rule="evenodd" clip-rule="evenodd" fill="#FF5B00" d="M35.951,25.912c0-4.949,4.008-8.957,8.957-8.957
			c4.936,0,8.956,4.008,8.956,8.957c0,4.936-4.021,8.957-8.956,8.957C39.959,34.868,35.951,30.847,35.951,25.912z"/>
		<circle fill-rule="evenodd" clip-rule="evenodd" fill="#FFFFFF" cx="44.908" cy="25.912" r="5.016"/>
	</g>
</g>
</svg>
