<?xml version="1.0" encoding="utf-8"?>
<!-- Generator: Adobe Illustrator 16.2.0, SVG Export Plug-In . SVG Version: 6.00 Build 0)  -->
<!DOCTYPE svg PUBLIC "-//W3C//DTD SVG 1.1//EN" "http://www.w3.org/Graphics/SVG/1.1/DTD/svg11.dtd">
<svg version="1.1" id="Layer_1" xmlns="http://www.w3.org/2000/svg" xmlns:xlink="http://www.w3.org/1999/xlink" x="0px" y="0px"
	 width="90px" height="90px" viewBox="0 0 90 90" enable-background="new 0 0 90 90" xml:space="preserve">
<g>
	<path fill="#0068DD" d="M25.426,62.541V23.84c0-2.673,2.167-4.84,4.826-4.84H49.61l14.518,14.518v7.252
		c-6.457-4.524-15.272-3.619-20.564,2.221c-5.922,6.402-5.511,16.341,0.864,22.209c0.836,0.822,1.768,1.577,2.769,2.18H30.252
		C27.593,67.381,25.426,65.214,25.426,62.541z M59.659,35.589L47.54,23.456v12.133H59.659z"/>
	<path fill-rule="evenodd" clip-rule="evenodd" fill="#FF5B00" d="M68.721,71l-7.375-7.266l-1.166,0.617
		c-3.4,1.494-7.348,1.248-10.542-0.795c-5.209-3.304-6.827-10.254-3.482-15.519c3.263-5.183,10.254-6.801,15.519-3.497
		c4.881,3.099,6.594,9.405,4.058,14.518l-0.425,0.769l7.267,7.321v0.479l-3.373,3.359L68.721,71z M62.044,54.083
		c0-3.537-2.852-6.388-6.388-6.388c-3.523,0-6.389,2.851-6.389,6.388c0,3.523,2.865,6.389,6.389,6.389
		C59.192,60.471,62.044,57.606,62.044,54.083z"/>
</g>
</svg>
