<?xml version="1.0" encoding="utf-8"?>
<!-- Generator: Adobe Illustrator 16.2.0, SVG Export Plug-In . SVG Version: 6.00 Build 0)  -->
<!DOCTYPE svg PUBLIC "-//W3C//DTD SVG 1.1//EN" "http://www.w3.org/Graphics/SVG/1.1/DTD/svg11.dtd">
<svg version="1.1" id="Layer_1" xmlns="http://www.w3.org/2000/svg" xmlns:xlink="http://www.w3.org/1999/xlink" x="0px" y="0px"
	 width="80px" height="80px" viewBox="0 0 80 80" enable-background="new 0 0 80 80" xml:space="preserve">
<path fill="#FFFFFF" d="M35.315,67.666c-0.159-0.464-0.333-0.797-0.744-1.076c-1.768-1.183-2.034-2.632-0.824-4.532
	c-1.05-1.422-1.05-2.871,0.186-4.187c-0.386-2.272-1.568-3.934-3.376-5.236c-0.969-0.705-1.807-1.595-2.937-2.592h-4.532
	c-0.186,1.037-0.053,2.06-0.08,3.057c1.848,1.369,2.299,2.339,1.781,3.841c-0.425,1.263-1.528,2.074-2.778,2.086
	c-1.355,0.027-2.592-1.129-2.871-2.179c-0.398-1.436,0.08-2.498,1.86-3.748c0-0.784,0.014-1.621-0.013-2.445
	c-0.054-2.724,0.013-2.685,2.697-2.645c0.997,0.013,1.994,0,3.043,0c-0.305-0.691-0.558-1.302-0.85-1.98h-6.406
	c-0.598,0.572-1.169,1.117-1.714,1.661c0.426,1.98-0.053,3.296-1.409,4.001c-1.196,0.611-2.525,0.358-3.508-0.665
	c-0.931-0.971-1.104-2.3-0.453-3.456c0.745-1.316,2.034-1.754,3.974-1.303c0.545-0.545,1.143-1.13,1.715-1.728
	c0.372-0.385,0.784-0.559,1.329-0.545c1.501,0.04,2.99,0.013,4.492,0.013h1.236c0.266-0.718-0.04-1.289-0.199-1.94H14.875
	c-1.21,1.714-2.26,2.193-3.695,1.794C10.117,43.57,8.974,42.335,9,40.992c0.013-1.262,0.824-2.353,2.086-2.791
	c1.489-0.505,2.473-0.066,3.814,1.768h10.061c0.12-0.598,0.227-1.196,0.359-1.887c-0.425-0.026-0.744-0.08-1.063-0.08
	c-1.582,0-3.163-0.027-4.744,0.014c-0.638,0.013-1.117-0.173-1.529-0.652c-0.505-0.558-1.05-1.063-1.608-1.635
	c-0.943,0.293-1.9,0.479-2.751-0.106c-0.505-0.346-0.997-0.798-1.29-1.315c-0.677-1.183-0.358-2.526,0.691-3.509
	c0.931-0.876,2.22-1.05,3.336-0.465c1.356,0.705,1.808,1.994,1.396,4.014c0.532,0.492,1.077,1.01,1.714,1.608h6.393
	c0.266-0.598,0.531-1.235,0.851-1.967c-1.449,0-2.818,0.014-4.187,0c-1.263,0-1.529-0.266-1.529-1.542c-0.013-1.169,0-2.339,0-3.562
	c-1.209-0.744-2.219-1.702-1.967-3.282c0.253-1.568,1.329-2.419,2.897-2.672c0.279-1.555,1.089-2.671,2.672-2.91
	c1.501-0.24,2.511,0.624,3.229,1.953c0.851,0,1.728,0.014,2.592,0c2.591-0.053,2.631-0.013,2.578,2.645
	c-0.026,0.997-0.014,1.994-0.014,3.097c0.718-0.306,1.343-0.585,1.967-0.851v-6.499c-0.518-0.492-1.09-1.023-1.741-1.635
	c-0.771,0.292-1.701,0.425-2.512-0.093c-0.545-0.345-1.076-0.837-1.382-1.396c-0.678-1.17-0.333-2.499,0.73-3.482
	c0.931-0.877,2.207-1.09,3.443-0.359c1.302,0.757,1.714,2.073,1.235,3.907c0.293,0.306,0.599,0.718,0.997,0.997
	c1.09,0.798,1.382,1.847,1.289,3.15c-0.093,1.542-0.026,3.083-0.026,4.652c0.73,0.306,1.315-0.094,1.967-0.146V14.89
	c-1.807-1.329-2.272-2.339-1.768-3.814c0.425-1.276,1.515-2.1,2.765-2.113c1.302-0.013,2.445,0.837,2.871,2.167
	c0.465,1.422-0.026,2.459-1.794,3.721v11.004c0.544,0.438,1.196,0.372,1.967,0.346c0-1.329-0.014-2.619,0-3.895
	c0-0.876-0.199-1.847,0.106-2.604c0.306-0.757,1.129-1.303,1.714-1.94c0.146-0.146,0.292-0.306,0.412-0.439
	c-0.412-2.006,0.026-3.282,1.396-4.013c1.196-0.639,2.525-0.386,3.509,0.637c0.944,0.984,1.129,2.313,0.492,3.442
	c-0.757,1.329-2.074,1.794-3.894,1.342c-0.519,0.572-1.05,1.156-1.688,1.847v6.26c0.624,0.279,1.235,0.545,1.953,0.864
	c0-1.209,0-2.365,0-3.521c0-0.333-0.013-0.665,0-0.997c0.04-0.837,0.385-1.183,1.249-1.196c0.958-0.027,1.914-0.014,2.871-0.014
	h0.984c0.784-1.276,1.767-2.246,3.349-1.953c1.515,0.279,2.326,1.342,2.591,2.884c1.542,0.306,2.711,1.116,2.924,2.764
	c0.187,1.461-0.651,2.433-1.967,3.15c0,0.997,0,2.019,0,3.056c0,0.292,0,0.585-0.014,0.877c-0.04,0.864-0.359,1.223-1.209,1.236
	c-1.13,0.026-2.247,0-3.375,0h-1.13c0.292,0.705,0.558,1.316,0.824,1.967h6.485c0.531-0.544,1.05-1.077,1.647-1.688
	c-0.292-0.824-0.438-1.793,0.133-2.645c0.359-0.531,0.864-1.036,1.436-1.329c1.223-0.651,2.458-0.292,3.456,0.811
	c0.704,0.771,1.077,2.047,0.332,3.35c-0.758,1.329-2.007,1.728-4.081,1.275c-0.372,0.412-0.837,0.891-1.262,1.409
	c-0.531,0.665-1.183,0.917-2.06,0.877c-1.542-0.067-3.083-0.014-4.625-0.014h-0.864c0.093,0.718,0.172,1.316,0.252,1.954h10.141
	c0.226-0.293,0.492-0.665,0.797-0.997c0.89-0.931,1.954-1.223,3.164-0.718c1.129,0.465,1.793,1.329,1.94,2.539
	c0.12,1.116-0.584,2.299-1.661,2.857c-1.276,0.651-2.512,0.438-3.482-0.638c-0.252-0.279-0.452-0.599-0.704-0.944H54.945
	c-0.08,0.598-0.173,1.196-0.266,1.874c0.412,0.027,0.731,0.08,1.05,0.08c1.582,0,3.176,0.026,4.758-0.013
	c0.637-0.014,1.116,0.173,1.528,0.651c0.491,0.559,1.023,1.089,1.541,1.661c0.997-0.306,1.967-0.518,2.818,0.08
	c0.492,0.345,0.984,0.797,1.29,1.316c0.665,1.169,0.345,2.512-0.705,3.508c-0.943,0.877-2.219,1.05-3.335,0.465
	c-1.355-0.718-1.807-2.007-1.396-4c-0.531-0.506-1.076-1.023-1.728-1.622h-6.379c-0.266,0.599-0.545,1.236-0.864,1.954
	c1.449,0,2.817,0,4.187,0.013c1.276,0,1.541,0.266,1.555,1.528c0,1.169,0,2.326,0,3.562c0.292,0.226,0.638,0.452,0.944,0.718
	c1.063,0.943,1.342,2.286,0.744,3.509c-0.519,1.063-1.967,1.874-3.097,1.674c-1.422-0.266-2.393-1.316-2.578-2.685
	c-0.106-0.811,0.132-1.581,0.717-2.18c0.372-0.372,0.811-0.704,1.223-1.063v-3.003h-5.024c-0.903,1.037-1.86,2.06-3.003,2.938
	c-1.555,1.196-2.605,2.764-2.844,4.864c1.143,1.263,1.249,2.658,0.173,4.107c0.559,0.957,1.01,1.9,0.545,3.043
	c-0.279,0.665-0.704,1.156-1.262,1.502c-0.452,0.279-0.678,0.598-0.864,1.116c-0.877,2.525-3.216,3.495-4.864,3.375
	C37.867,70.896,36.086,69.859,35.315,67.666z M42.838,67.107h-5.662c0.69,1.21,1.502,1.981,2.884,1.94
	C41.389,69.022,42.146,68.264,42.838,67.107z M43.861,65.035c0.239,0,0.492-0.067,0.691-0.186c0.398-0.239,0.532-0.638,0.412-1.09
	c-0.093-0.385-0.545-0.705-1.037-0.717c-1.289-0.014-2.578,0-3.867,0c-1.29,0-2.579-0.014-3.868,0
	c-0.744,0.013-1.183,0.372-1.196,0.969c-0.014,0.599,0.398,1.024,1.13,1.024C38.705,65.048,41.283,65.048,43.861,65.035z
	 M44.047,61.021c0.544-0.04,0.93-0.452,0.944-0.957c0.013-0.505-0.359-0.943-0.891-1.023c-0.12-0.026-0.239-0.014-0.373-0.014
	h-7.482c-0.119,0-0.252-0.013-0.372,0.014c-0.518,0.08-0.891,0.532-0.877,1.023c0.027,0.505,0.398,0.943,0.943,0.957
	c1.329,0.027,2.671,0.014,4,0.014l0,0c0.957,0,1.914,0,2.871,0C43.223,61.034,43.635,61.061,44.047,61.021z M58.985,55.984
	c-0.026-0.572-0.519-1.01-1.077-0.957c-0.544,0.053-0.97,0.558-0.917,1.103c0.053,0.505,0.519,0.903,1.011,0.891
	C58.561,57.021,59.012,56.542,58.985,55.984z M22.995,56.05c0.014-0.544-0.452-1.023-0.997-1.023c-0.558,0-1.023,0.479-0.997,1.037
	c0.014,0.491,0.438,0.93,0.931,0.957C22.49,57.061,22.982,56.608,22.995,56.05z M44.247,56.754c0.066-0.146,0.16-0.292,0.199-0.452
	c0.452-2.06,1.728-3.575,3.31-4.837c1.076-0.877,2.06-1.808,2.857-2.937c2.246-3.243,2.99-6.832,2.033-10.646
	c-1.701-6.778-8.346-11.004-15.084-9.675c-3.283,0.651-5.955,2.272-7.948,4.917c-2.299,3.07-3.137,6.526-2.379,10.339
	c0.639,3.23,2.247,5.835,4.838,7.855c1.608,1.249,2.871,2.765,3.429,4.771c0.08,0.319,0.213,0.611,0.319,0.904h8.28
	C44.167,56.887,44.22,56.835,44.247,56.754z M36.99,50.947c-0.053-0.292-0.146-0.572-0.199-0.851
	c-0.053-0.239-0.08-0.478-0.147-0.89c-0.81,0.492-1.528,0.93-2.338,1.422c-1.516-1.077-2.751-2.392-3.921-3.895
	c0.465-0.784,0.904-1.515,1.396-2.339c-0.625-0.133-1.17-0.266-1.728-0.385c-0.797-0.173-1.036-0.425-1.05-1.263
	c-0.027-1.169-0.027-2.339,0-3.508c0.014-0.812,0.266-1.077,1.077-1.236c0.531-0.106,1.05-0.226,1.714-0.372
	c-0.479-0.784-0.917-1.501-1.315-2.18c0.491-1.13,2.618-3.309,3.907-4.001c0.665,0.399,1.396,0.824,2.206,1.303
	c0.146-0.572,0.292-1.077,0.399-1.582c0.186-0.93,0.398-1.156,1.276-1.182c1.169-0.014,2.339-0.014,3.495,0.013
	c0.811,0.014,1.063,0.266,1.236,1.09c0.106,0.518,0.226,1.036,0.372,1.701c0.785-0.478,1.502-0.917,2.299-1.422
	c1.529,1.09,2.751,2.405,3.948,3.894c-0.479,0.797-0.917,1.515-1.396,2.339c0.611,0.146,1.156,0.279,1.714,0.398
	c0.798,0.16,1.037,0.425,1.05,1.263c0.026,1.169,0.026,2.339,0,3.495c-0.013,0.824-0.266,1.09-1.077,1.25
	c-0.279,0.053-0.558,0.146-0.837,0.213c-0.239,0.04-0.478,0.08-0.876,0.133c0.478,0.811,0.917,1.528,1.329,2.193
	c-0.492,1.13-2.606,3.31-3.935,4.026c-0.717-0.438-1.409-0.863-2.193-1.355c-0.146,0.639-0.279,1.183-0.398,1.728
	c-0.173,0.811-0.426,1.05-1.263,1.063h-3.495C37.415,51.997,37.163,51.757,36.99,50.947z M65.99,49.112
	c0.053-0.558-0.386-1.063-0.944-1.089c-0.571-0.04-1.036,0.399-1.05,0.97c-0.013,0.558,0.438,1.023,0.997,1.023
	C65.498,50.017,65.95,49.604,65.99,49.112z M15.991,48.94c-0.04-0.558-0.544-0.983-1.103-0.917c-0.492,0.053-0.891,0.505-0.891,1.01
	c0.014,0.544,0.492,1.01,1.037,0.983C15.605,49.99,16.031,49.512,15.991,48.94z M42.598,47.465c1.303-0.505,2.021,0.239,3.044,0.851
	c0.252-0.306,0.479-0.598,0.731-0.877c0.266-0.306,0.558-0.584,0.864-0.917c-0.186-0.239-0.319-0.438-0.478-0.625
	c-0.519-0.678-0.665-1.329-0.319-2.193c0.319-0.798,0.744-1.236,1.608-1.262c0.306-0.014,0.611-0.213,0.904-0.319v-2.246
	c-0.891-0.438-2.021-0.199-2.512-1.501c-0.505-1.303,0.279-2.021,0.877-3.07c-0.306-0.239-0.611-0.452-0.891-0.691
	c-0.319-0.266-0.598-0.558-0.93-0.851c-0.279,0.199-0.519,0.373-0.745,0.545c-0.638,0.518-1.289,0.545-2.073,0.226
	c-0.731-0.292-1.209-0.638-1.25-1.489c-0.013-0.345-0.199-0.691-0.305-1.01h-2.26c-0.438,0.917-0.212,2.033-1.515,2.525
	c-1.303,0.505-2.007-0.346-2.937-0.798c-0.572,0.598-1.117,1.157-1.675,1.714c0.705,0.917,1.263,1.662,0.811,2.884
	c-0.478,1.316-1.608,1.09-2.485,1.501v2.313c2.964,0.373,3.336,2.432,1.794,4.319c0.532,0.558,1.076,1.116,1.662,1.714
	c0.411-0.279,0.744-0.545,1.116-0.718c0.279-0.146,0.651-0.279,0.931-0.213c0.544,0.133,1.129,0.319,1.568,0.652
	c0.266,0.213,0.279,0.73,0.412,1.116c0.106,0.306,0.213,0.625,0.319,0.93h2.233C41.575,49.112,41.296,47.957,42.598,47.465z
	 M34.013,41.072c-0.04-3.375,2.645-6.06,5.981-6.06c3.402,0.013,6.007,2.711,5.98,6.047c-0.04,3.309-2.618,5.848-5.98,5.954
	C36.764,46.933,34.066,44.448,34.013,41.072z M43.994,40.992c0.12-2.086-1.914-4.014-4.014-4.027c-2.126,0-4.027,2.047-4.014,4.041
	c0,1.98,1.834,4.026,4.041,4.04C42,45.046,44.127,43.159,43.994,40.992z M68.994,40.992c-0.014-0.558-0.492-1.01-1.05-0.983
	c-0.558,0.013-0.984,0.505-0.943,1.063c0.04,0.519,0.465,0.917,0.97,0.931C68.528,42.016,68.994,41.551,68.994,40.992z
	 M12.988,41.045c0.026-0.558-0.439-1.037-0.984-1.037c-0.558,0-1.023,0.465-1.01,1.023c0.013,0.505,0.438,0.93,0.931,0.97
	C12.483,42.042,12.975,41.59,12.988,41.045z M65.99,32.952c-0.027-0.572-0.518-0.997-1.077-0.957
	c-0.558,0.04-0.97,0.558-0.917,1.103c0.053,0.492,0.505,0.904,1.01,0.891C65.564,33.988,66.016,33.51,65.99,32.952z M15.991,32.979
	c0-0.558-0.479-1.011-1.037-0.984c-0.505,0.026-0.931,0.438-0.957,0.943c-0.026,0.558,0.426,1.037,0.984,1.05
	C15.526,34.002,16.004,33.537,15.991,32.979z M56.965,31.968v-3.136c-1.143-0.571-1.847-1.489-2.02-2.791
	c-1.315-0.186-2.22-0.904-2.778-2.033h-3.123v4.784c1.116,1.143,2.073,2.127,3.123,3.203C53.643,31.981,55.291,32.008,56.965,31.968
	z M30.996,28.778c0-0.531,0.013-1.369,0-2.193c-0.013-0.851,0.053-1.714-0.053-2.565h-3.096c-0.599,1.143-1.529,1.834-2.818,2.02
	c-0.133,1.369-0.943,2.207-2.061,2.818c0.12,1.063-0.119,2.1,0.133,3.109h4.678C28.883,30.878,29.853,29.922,30.996,28.778z
	 M22.995,25.907c-0.04-0.505-0.491-0.917-0.983-0.93c-0.558,0-1.023,0.465-1.01,1.023c0,0.558,0.479,1.01,1.037,0.983
	C22.61,26.958,23.048,26.466,22.995,25.907z M58.985,25.907c-0.04-0.505-0.478-0.917-0.983-0.93
	c-0.545-0.014-1.023,0.465-1.011,1.023c0.014,0.558,0.492,0.997,1.05,0.983C58.6,26.958,59.039,26.466,58.985,25.907z
	 M25.999,22.904c-0.04-0.505-0.492-0.917-0.984-0.931c-0.558,0-1.023,0.465-1.023,1.023c0.014,0.559,0.492,1.01,1.05,0.984
	C25.601,23.954,26.039,23.449,25.999,22.904z M55.995,22.904c-0.04-0.505-0.491-0.917-0.997-0.931c-0.544,0-1.01,0.465-0.997,1.023
	c0,0.559,0.479,0.997,1.037,0.984C55.597,23.954,56.035,23.449,55.995,22.904z M32.989,15.927c-0.026-0.519-0.452-0.931-0.957-0.957
	c-0.558-0.027-1.037,0.425-1.037,0.983s0.465,1.023,1.023,1.011C32.591,16.95,33.03,16.485,32.989,15.927z M48.991,15.887
	c-0.04-0.492-0.479-0.917-0.983-0.917c-0.558-0.014-1.023,0.464-1.01,1.01c0.014,0.571,0.479,1.01,1.05,0.984
	C48.605,16.937,49.044,16.445,48.991,15.887z M40.99,11.886c-0.04-0.505-0.491-0.917-0.983-0.93c-0.558,0-1.023,0.465-1.011,1.024
	c0.014,0.558,0.492,1.01,1.05,0.983C40.605,12.937,41.043,12.432,40.99,11.886z"/>
</svg>
