<?xml version="1.0" encoding="utf-8"?>
<!-- Generator: Adobe Illustrator 16.2.0, SVG Export Plug-In . SVG Version: 6.00 Build 0)  -->
<!DOCTYPE svg PUBLIC "-//W3C//DTD SVG 1.1//EN" "http://www.w3.org/Graphics/SVG/1.1/DTD/svg11.dtd">
<svg version="1.1" id="Layer_1" xmlns="http://www.w3.org/2000/svg" xmlns:xlink="http://www.w3.org/1999/xlink" x="0px" y="0px"
	 width="80px" height="80px" viewBox="0 0 80 80" enable-background="new 0 0 80 80" xml:space="preserve">
<path fill-rule="evenodd" clip-rule="evenodd" fill="#FFFFFF" d="M10,40.006c0-7.399,6.053-13.453,13.506-13.453
	c3.601,0,7,1.4,9.547,3.947L40,36.646l7.08-6.267c2.426-2.426,5.827-3.826,9.426-3.826C63.96,26.553,70,32.5,70,40.006
	c0,7.4-6.04,13.427-13.494,13.427c-3.626,0-7-1.4-9.56-3.933L40,43.354l-7.066,6.28c-2.427,2.413-5.827,3.813-9.427,3.813
	C16.053,53.447,10,47.407,10,40.006z M29.506,45.98l4.094-3.626h-7.413c-1.107,0-2-0.893-2-2s0.893-2,2-2h8.2L29.6,34.127
	c-1.693-1.694-3.827-2.574-6.094-2.574c-4.68,0-8.506,3.773-8.506,8.453c0,4.667,3.827,8.44,8.506,8.44
	C25.773,48.447,27.907,47.58,29.506,45.98z M65,40.006c0-4.68-3.813-8.453-8.494-8.453c-2.28,0-4.399,0.88-6,2.48l-4.879,4.32h8.187
	c1.106,0,2,0.893,2,2s-0.894,2-2,2h-7.4l3.987,3.52c1.707,1.707,3.853,2.574,6.106,2.574C61.187,48.447,65,44.673,65,40.006z"/>
</svg>
