<?xml version="1.0" encoding="utf-8"?>
<!-- Generator: Adobe Illustrator 16.2.0, SVG Export Plug-In . SVG Version: 6.00 Build 0)  -->
<!DOCTYPE svg PUBLIC "-//W3C//DTD SVG 1.1//EN" "http://www.w3.org/Graphics/SVG/1.1/DTD/svg11.dtd">
<svg version="1.1" id="Layer_1" xmlns="http://www.w3.org/2000/svg" xmlns:xlink="http://www.w3.org/1999/xlink" x="0px" y="0px"
	 width="80px" height="80px" viewBox="0 0 80 80" enable-background="new 0 0 80 80" xml:space="preserve">
<path fill-rule="evenodd" clip-rule="evenodd" fill="#FFFFFF" d="M52.194,65.447v-6.695h-3.942c-1.176,0-2.271-0.587-2.914-1.563
	l-4.757-7.123l4.222-6.32l5.319,7.991h2.072v-6.882c0.374-0.855,1.483-0.468,1.938,0l8.606,8.606c0.989,0.989,1.042,2.326,0,3.368
	l-8.606,8.619C53.677,65.901,52.568,66.289,52.194,65.447z M16.5,55.237c0-1.937,1.577-3.501,3.515-3.501h6.014l19.31-28.959
	c0.642-0.975,1.737-1.563,2.914-1.563h3.942v-6.655c0.374-0.842,1.483-0.468,1.938,0l8.606,8.606c0.989,0.989,1.042,2.326,0,3.381
	l-8.606,8.606c-0.455,0.454-1.563,0.842-1.938,0v-6.923h-2.072L30.826,57.188c-0.655,0.976-1.751,1.563-2.927,1.563h-7.884
	C18.077,58.751,16.5,57.175,16.5,55.237z M31.36,36.221l-5.332-7.992h-6.014c-1.938,0-3.515-1.577-3.515-3.515
	s1.577-3.501,3.515-3.501h7.884c1.176,0,2.272,0.588,2.927,1.563l4.744,7.123L31.36,36.221z"/>
</svg>
