<?xml version="1.0" encoding="utf-8"?>
<!-- Generator: Adobe Illustrator 16.2.0, SVG Export Plug-In . SVG Version: 6.00 Build 0)  -->
<!DOCTYPE svg PUBLIC "-//W3C//DTD SVG 1.1//EN" "http://www.w3.org/Graphics/SVG/1.1/DTD/svg11.dtd">
<svg version="1.1" id="Layer_1" xmlns="http://www.w3.org/2000/svg" xmlns:xlink="http://www.w3.org/1999/xlink" x="0px" y="0px"
	 width="80px" height="80px" viewBox="0 0 80 80" enable-background="new 0 0 80 80" xml:space="preserve">
<path fill-rule="evenodd" clip-rule="evenodd" fill="#FFFFFF" d="M45.552,66.067c-1.756-1.77-2.252-4.316-1.489-6.529l-13.204-9.974
	c-5.135,4.625-13.071,4.478-18.019-0.483c-5.121-5.108-5.121-13.419,0-18.541c5.081-5.081,13.326-5.107,18.447-0.08l12.883-9.733
	c-0.911-2.266-0.456-4.96,1.381-6.797c2.453-2.454,6.435-2.454,8.901,0c2.453,2.454,2.453,6.448,0,8.901
	c-2.333,2.333-6.046,2.44-8.526,0.349l-12.75,9.626c1.073,1.688,1.716,3.579,1.944,5.496h23.487
	c0.255-1.072,0.817-2.091,1.649-2.936c2.454-2.454,6.448-2.454,8.902,0c2.454,2.453,2.454,6.435,0,8.902
	c-2.454,2.453-6.448,2.453-8.902,0c-0.832-0.845-1.394-1.864-1.649-2.95H35.122c-0.241,2.118-0.992,4.17-2.252,5.979l12.856,9.707
	c2.466-2.292,6.314-2.239,8.727,0.161c2.453,2.454,2.453,6.448,0,8.901C51.987,68.521,48.005,68.521,45.552,66.067z M21.247,45.999
	l8.741-8.728c0.537-0.536,0.537-1.407,0-1.943c-0.536-0.523-1.407-0.523-1.93,0l-7.775,7.775l-4.237-4.237
	c-0.536-0.536-1.394-0.536-1.93,0c-0.536,0.537-0.536,1.395,0,1.931l5.201,5.202C19.852,46.535,20.724,46.535,21.247,45.999z"/>
</svg>
