<?xml version="1.0" encoding="utf-8"?>
<!-- Generator: Adobe Illustrator 16.2.0, SVG Export Plug-In . SVG Version: 6.00 Build 0)  -->
<!DOCTYPE svg PUBLIC "-//W3C//DTD SVG 1.1//EN" "http://www.w3.org/Graphics/SVG/1.1/DTD/svg11.dtd">
<svg version="1.1" id="Layer_1" xmlns="http://www.w3.org/2000/svg" xmlns:xlink="http://www.w3.org/1999/xlink" x="0px" y="0px"
	 width="80px" height="80px" viewBox="0 0 80 80" enable-background="new 0 0 80 80" xml:space="preserve">
<path fill-rule="evenodd" clip-rule="evenodd" fill="#FFFFFF" d="M43.187,65l-6.574-0.146l-0.76-7.534
	c-1.76-0.413-3.48-1.106-5.066-2.066l-6.146,4.693l-4.6-4.693l4.747-5.974c-0.947-1.573-1.64-3.24-2.067-4.973L15,43.173l0.16-6.56
	l7.52-0.76c0.427-1.733,1.093-3.427,2.027-4.987l-4.64-6.307l4.76-4.521l5.827,4.8c1.56-0.973,3.253-1.68,5-2.106L36.814,15
	l6.573,0.16l0.734,7.506c1.747,0.414,3.44,1.093,5.026,2.04l6.307-4.626l4.521,4.773l-4.8,5.799c0.973,1.574,1.68,3.281,2.106,5.027
	L65,36.827L64.84,43.4l-7.507,0.733c-0.413,1.773-1.12,3.494-2.08,5.08l4.693,6.16L55.24,59.96L49.293,55.2
	c-1.573,0.96-3.253,1.654-4.986,2.08L43.187,65z M49.707,49.693c5.346-5.346,5.346-14.041,0-19.4c-5.346-5.347-14.053-5.347-19.4,0
	c-5.36,5.359-5.36,14.054,0,19.4C35.654,55.053,44.361,55.053,49.707,49.693z M32.934,47.08c-3.906-3.907-3.906-10.253,0-14.146
	c3.893-3.907,10.24-3.907,14.133,0c3.907,3.893,3.907,10.24,0,14.146C43.174,50.973,36.827,50.973,32.934,47.08z M39.947,47.347
	v-0.094V47.347l0.854-0.014c2.333-0.054,4.586-0.213,5.36-1.414l0.014-0.027v-1.76v-0.013c-0.507-1.44-1.973-2.281-3.947-2.681
	h-0.014c-1.506-0.026-0.626-1.24,0.374-2.8l0.307-0.494l0.133-0.227h-0.014c0.32-0.68,0.506-1.48,0.506-2.333
	c0-2.493-1.586-4.547-3.573-4.547c-1.986,0-3.56,2.054-3.56,4.547c0,0.867,0.187,1.681,0.52,2.36L36.88,37.96l0.227,0.359
	l0.106,0.187c1.014,1.614,2.041,2.907,0.453,2.934h-0.013c-1.96,0.4-3.427,1.24-3.934,2.681v0.013v1.76l0.014,0.027
	c0.786,1.201,3.026,1.36,5.36,1.414L39.947,47.347z"/>
</svg>
