<?xml version="1.0" encoding="utf-8"?>
<!-- Generator: Adobe Illustrator 16.2.0, SVG Export Plug-In . SVG Version: 6.00 Build 0)  -->
<!DOCTYPE svg PUBLIC "-//W3C//DTD SVG 1.1//EN" "http://www.w3.org/Graphics/SVG/1.1/DTD/svg11.dtd">
<svg version="1.1" id="Layer_1" xmlns="http://www.w3.org/2000/svg" xmlns:xlink="http://www.w3.org/1999/xlink" x="0px" y="0px"
	 width="80px" height="80px" viewBox="0 0 80 80" enable-background="new 0 0 80 80" xml:space="preserve">
<path fill="#FFFFFF" d="M50.219,63.46c-0.825-0.433-1.14-1.153-1.14-2.083c0.013-1.887-0.026-3.772-0.052-5.659
	c0-0.288,0-0.589,0-0.943c0-0.145-0.118-0.275-0.275-0.275c-0.969,0-1.86,0-2.737,0c-1.257,0-2.515,0-3.773-0.026
	c-1.545-0.04-2.383-0.891-2.279-2.345c0.065-1.009,0-2.031,0.014-3.039c0.025-1.337,0.667-1.979,1.978-1.992
	c1.886-0.026,3.772-0.026,5.658-0.026c0.367-0.013,0.747-0.013,1.218-0.013c0.144,0,0.275-0.118,0.275-0.262
	c0-2.279-0.013-4.428,0-6.563c0-1.651,0.602-2.292,2.227-2.332c1.008-0.013,2.03-0.027,3.039,0.026
	c1.388,0.066,2.003,0.707,2.043,2.109c0.065,1.925,0.079,3.837,0.118,5.763c0,0.301,0,0.602,0,0.969
	c0,0.157,0.118,0.275,0.262,0.275h1.296c1.703,0.014,3.419,0.066,5.122,0.014c1.179-0.026,1.991,0.366,2.357,1.506
	c0.014,0.026,0.014,0.065,0.014,0.092v4.1c0,0.026,0,0.065-0.014,0.092c-0.379,1.231-1.336,1.637-2.527,1.637
	c-1.808,0.013-3.628,0.013-5.449,0.013c-0.249,0-0.511,0-0.799,0c-0.145,0-0.262,0.13-0.262,0.275c0,0.393,0,0.708,0,1.021
	c-0.039,1.847-0.092,3.694-0.092,5.554c0,0.995-0.393,1.703-1.284,2.122c-0.026,0.013-0.079,0.027-0.117,0.027h-4.689
	C50.311,63.5,50.258,63.486,50.219,63.46z M28.004,60.107c-2.122-0.563-4.178-1.336-6.039-2.528c-1.729-1.1-3.078-2.462-3.537-4.532
	c0-0.026,0-0.039,0-0.065v-6.458c0.105,0.131,0.262,0.249,0.314,0.406c0.826,2.371,2.751,3.616,4.833,4.663
	c2.633,1.336,5.475,2.043,8.383,2.437c1.545,0.209,3.104,0.367,4.702,0.55c0.079,0,0.144,0.052,0.196,0.118
	c0.092,0.131,0.21,0.289,0.301,0.459c1.009,1.676,2.45,2.645,4.427,2.724c1.166,0.039,2.332,0.013,3.563,0.013
	c0.144,0,0.275,0.118,0.275,0.262v2.37c0,0.131-0.091,0.236-0.222,0.262c-0.694,0.118-1.428,0.288-2.161,0.354
	C37.972,61.613,32.955,61.43,28.004,60.107z M33.112,51.973c-3.602-0.471-7.125-1.244-10.374-3.026
	c-0.301-0.157-0.59-0.34-0.877-0.537c-1.664-1.139-3.079-2.501-3.432-4.597c0-0.013,0-0.026,0-0.04v-6.274
	c0.105,0.132,0.275,0.25,0.328,0.407c0.812,2.227,2.606,3.471,4.584,4.479c2.921,1.493,6.064,2.253,9.3,2.646
	c1.467,0.184,2.947,0.302,4.401,0.446c0.17,0.013,0.288,0.184,0.236,0.341c-0.289,0.956-0.629,1.913-0.76,2.895
	c-0.144,1.035-0.053,2.096-0.04,3.275c0,0.157-0.131,0.288-0.288,0.275C35.064,52.156,34.082,52.104,33.112,51.973z M26.603,41.48
	c-1.703-0.563-3.327-1.427-4.886-2.318c-1.677-0.957-2.869-2.397-3.288-4.349c0-0.026,0-0.039,0-0.065v-5.515
	c0-0.184,0.184-0.327,0.354-0.25c0.026,0,0.039,0.014,0.053,0.04c0.864,1.912,2.397,3.13,4.191,4.087
	c2.672,1.427,5.567,2.2,8.541,2.698c3.288,0.563,6.602,0.537,9.916,0.379c1.664-0.078,3.301-0.472,4.951-0.72
	c0.157-0.026,0.314-0.053,0.485-0.065c0.249-0.026,0.393,0.275,0.223,0.445c-1.716,1.807-1.676,4.113-1.65,6.458
	c0,0.131-0.092,0.249-0.223,0.262c-0.642,0.118-1.205,0.236-1.794,0.302C37.762,43.485,32.104,43.301,26.603,41.48z M52.171,34.342
	c-0.275-0.013-0.354-0.38-0.118-0.511c2.057-1.14,4.205-2.175,5.371-4.362c0.131-0.249,0.498-0.157,0.511,0.105
	c0.091,1.769-0.092,3.523-0.171,5.305c-0.013,0.21-0.223,0.328-0.393,0.236C55.695,34.264,53.926,34.421,52.171,34.342z
	 M27.572,32.691c-2.083-0.615-4.1-1.362-5.908-2.606c-1.559-1.074-2.776-2.411-3.235-4.31c0-0.341-0.013-0.681-0.013-1.021
	c0.498-2.279,2.069-3.681,3.969-4.781c3.354-1.925,7.021-2.908,10.833-3.235c2.633-0.222,5.292-0.301,7.938-0.184
	c4.414,0.197,8.723,1.087,12.614,3.314c1.126,0.655,2.174,1.546,3.039,2.502c1.493,1.651,1.441,3.903,0.079,5.672
	c-1.179,1.546-2.751,2.567-4.493,3.327c-3.484,1.532-7.152,2.344-10.937,2.58C36.78,34.224,32.117,34.015,27.572,32.691z"/>
</svg>
