<?xml version="1.0" encoding="utf-8"?>
<!-- Generator: Adobe Illustrator 16.2.0, SVG Export Plug-In . SVG Version: 6.00 Build 0)  -->
<!DOCTYPE svg PUBLIC "-//W3C//DTD SVG 1.1//EN" "http://www.w3.org/Graphics/SVG/1.1/DTD/svg11.dtd">
<svg version="1.1" id="Layer_1" xmlns="http://www.w3.org/2000/svg" xmlns:xlink="http://www.w3.org/1999/xlink" x="0px" y="0px"
	 width="45px" height="45px" viewBox="0 0 45 45" enable-background="new 0 0 45 45" xml:space="preserve">
<path fill="#FFFFFF" d="M2.681,41.965c-0.712-0.699-0.712-1.848,0-2.561l5.32-5.32c0.699-0.699,1.848-0.699,2.561,0
	c0.713,0.713,0.713,1.861,0,2.574l-5.32,5.306C4.542,42.678,3.394,42.678,2.681,41.965z M39.757,41.965l-5.319-5.306
	c-0.699-0.714-0.699-1.861,0-2.574c0.713-0.699,1.861-0.699,2.574,0l5.307,5.319c0.711,0.714,0.711,1.861,0,2.562
	C41.605,42.678,40.458,42.678,39.757,41.965z M12.053,33.122V22.457c3.194,1.835,6.164,3.538,9.173,5.268v10.678
	C17.966,36.516,15.022,34.825,12.053,33.122z M23.826,38.361V27.725c2.931-1.703,5.912-3.418,9.121-5.268v10.679
	C30.018,34.813,27.047,36.527,23.826,38.361z M13.293,20.2c3.208-1.86,6.125-3.563,9.213-5.345c3.063,1.769,5.953,3.432,9.239,5.333
	c-3.247,1.874-6.19,3.589-9.226,5.345C19.498,23.775,16.554,22.087,13.293,20.2z M21.068,11.41V4.322
	c0-1.003,0.818-1.822,1.821-1.822c1.003,0,1.809,0.818,1.809,1.822v7.088c0,1.003-0.806,1.821-1.809,1.821
	C21.885,13.231,21.068,12.413,21.068,11.41z"/>
</svg>
