<?xml version="1.0" encoding="utf-8"?>
<!-- Generator: Adobe Illustrator 16.2.0, SVG Export Plug-In . SVG Version: 6.00 Build 0)  -->
<!DOCTYPE svg PUBLIC "-//W3C//DTD SVG 1.1//EN" "http://www.w3.org/Graphics/SVG/1.1/DTD/svg11.dtd">
<svg version="1.1" id="Layer_1" xmlns="http://www.w3.org/2000/svg" xmlns:xlink="http://www.w3.org/1999/xlink" x="0px" y="0px"
	 width="45px" height="45px" viewBox="0 0 45 45" enable-background="new 0 0 45 45" xml:space="preserve">
<path fill-rule="evenodd" clip-rule="evenodd" fill="#0068DD" d="M2.681,41.965c-0.712-0.7-0.712-1.848,0-2.561l5.32-5.32
	c0.699-0.699,1.848-0.699,2.561,0c0.713,0.713,0.713,1.861,0,2.574l-5.32,5.306C4.542,42.678,3.394,42.678,2.681,41.965z
	 M39.757,41.965l-5.319-5.306c-0.699-0.713-0.699-1.861,0-2.574c0.713-0.699,1.861-0.699,2.574,0l5.306,5.32
	c0.712,0.713,0.712,1.86,0,2.561C41.606,42.678,40.458,42.678,39.757,41.965z M12.053,33.122V22.457
	c3.194,1.835,6.164,3.538,9.173,5.267v10.678C17.966,36.515,15.022,34.825,12.053,33.122z M23.826,38.362V27.724
	c2.931-1.703,5.913-3.418,9.121-5.267v10.679C30.017,34.812,27.047,36.527,23.826,38.362z M13.293,20.2
	c3.208-1.86,6.125-3.563,9.213-5.345c3.062,1.769,5.953,3.432,9.239,5.333c-3.247,1.874-6.19,3.589-9.226,5.345
	C19.498,23.776,16.554,22.087,13.293,20.2z M21.068,11.41V4.322c0-1.003,0.818-1.822,1.821-1.822s1.809,0.818,1.809,1.822v7.088
	c0,1.003-0.805,1.821-1.809,1.821S21.068,12.413,21.068,11.41z"/>
</svg>
