<?xml version="1.0" encoding="utf-8"?>
<!-- Generator: Adobe Illustrator 16.2.0, SVG Export Plug-In . SVG Version: 6.00 Build 0)  -->
<!DOCTYPE svg PUBLIC "-//W3C//DTD SVG 1.1//EN" "http://www.w3.org/Graphics/SVG/1.1/DTD/svg11.dtd">
<svg version="1.1" id="Layer_1" xmlns="http://www.w3.org/2000/svg" xmlns:xlink="http://www.w3.org/1999/xlink" x="0px" y="0px"
	 width="45px" height="45px" viewBox="0 0 45 45" enable-background="new 0 0 45 45" xml:space="preserve">
<path fill="#0068DD" d="M28.115,30.624c-1.777,0-3.218-1.44-3.218-3.218c0-1.791,1.441-3.23,3.218-3.23
	c1.791,0,3.231,1.44,3.231,3.23C31.346,29.184,29.905,30.624,28.115,30.624 M33.028,30.502c1.724-2.719,0.889-6.327-1.804-8.023
	c-2.719-1.723-6.328-0.875-8.023,1.804c-1.724,2.72-0.889,6.314,1.804,8.024c1.885,1.198,4.281,1.198,6.179,0.027l4.025,3.958
	L37,34.501L33.028,30.502 M23.604,17.727v-7.095l7.095,7.095H23.604 M24.897,8.708H14.572C13.145,8.708,12,9.852,12,11.279v20.638
	c0,1.427,1.145,2.584,2.572,2.584h9.033c-0.525-0.323-1.037-0.727-1.467-1.157c-3.407-3.137-3.635-8.441-0.472-11.847
	c2.828-3.124,7.525-3.595,10.958-1.186v-3.877L24.897,8.708L24.897,8.708z"/>
</svg>
