<?xml version="1.0" encoding="utf-8"?>
<!-- Generator: Adobe Illustrator 16.2.0, SVG Export Plug-In . SVG Version: 6.00 Build 0)  -->
<!DOCTYPE svg PUBLIC "-//W3C//DTD SVG 1.1//EN" "http://www.w3.org/Graphics/SVG/1.1/DTD/svg11.dtd">
<svg version="1.1" id="Layer_1" xmlns="http://www.w3.org/2000/svg" xmlns:xlink="http://www.w3.org/1999/xlink" x="0px" y="0px"
	 width="45px" height="45px" viewBox="0 0 45 45" enable-background="new 0 0 45 45" xml:space="preserve">
<path fill-rule="evenodd" clip-rule="evenodd" fill="#0068DD" d="M27.939,36.923c-0.398-0.398-0.604-0.893-0.604-1.497
	c0-0.591,0.206-1.085,0.604-1.483c0.412-0.412,0.92-0.618,1.524-0.618s1.112,0.207,1.525,0.618c0.412,0.398,0.618,0.893,0.618,1.483
	c0,0.604-0.206,1.099-0.618,1.497c-0.413,0.385-0.92,0.577-1.525,0.577S28.351,37.308,27.939,36.923z M27.665,32.83v-1.113
	c0-0.837,0.11-1.539,0.343-2.074c0.233-0.55,0.535-1.003,0.878-1.36c0.357-0.357,0.701-0.673,1.044-0.948
	c0.343-0.288,0.645-0.563,0.893-0.852c0.261-0.289,0.385-0.632,0.385-1.043c0-0.413-0.137-0.756-0.426-1.03
	c-0.275-0.275-0.673-0.412-1.209-0.412c-0.659,0-1.154,0.207-1.469,0.631c-0.33,0.426-0.481,1.03-0.481,1.813h-3.502
	c0-1.263,0.233-2.335,0.687-3.213c0.467-0.866,1.113-1.512,1.937-1.951c0.81-0.439,1.758-0.659,2.829-0.659
	c1.113,0,2.033,0.207,2.789,0.632c0.769,0.426,1.346,1.002,1.73,1.731c0.398,0.728,0.591,1.552,0.591,2.458
	c0,0.7-0.096,1.277-0.302,1.73c-0.206,0.468-0.454,0.866-0.769,1.181c-0.303,0.33-0.618,0.618-0.934,0.894
	c-0.261,0.219-0.508,0.453-0.742,0.687s-0.426,0.494-0.577,0.783c-0.151,0.288-0.22,0.632-0.22,1.03v1.085H27.665z M10.317,29.767
	v-2.789c0-2.953,4.601-5.384,10.453-5.576c-0.454,1.085-0.701,2.266-0.701,3.489c0,1.799,0.522,3.489,1.388,4.875H10.317z
	 M17.542,17.035c-2.17-2.184-2.17-5.714,0-7.897c2.184-2.184,5.714-2.184,7.897,0c1.963,1.964,2.156,5.055,0.563,7.238
	c-1.168,0.439-2.253,1.14-3.201,2.074c-0.014,0.027-0.042,0.055-0.069,0.069C20.934,18.93,18.957,18.436,17.542,17.035z"/>
</svg>
