<?xml version="1.0" encoding="utf-8"?>
<!-- Generator: Adobe Illustrator 16.2.0, SVG Export Plug-In . SVG Version: 6.00 Build 0)  -->
<!DOCTYPE svg PUBLIC "-//W3C//DTD SVG 1.1//EN" "http://www.w3.org/Graphics/SVG/1.1/DTD/svg11.dtd">
<svg version="1.1" id="Layer_1" xmlns="http://www.w3.org/2000/svg" xmlns:xlink="http://www.w3.org/1999/xlink" x="0px" y="0px"
	 width="45px" height="45px" viewBox="0 0 45 45" enable-background="new 0 0 45 45" xml:space="preserve">
<path fill="#0068DD" d="M8.749,33h5.006V17.997H8.749V33z M36.251,19.256c0-1.392-1.124-2.503-2.502-2.503h-7.896l1.205-5.715
	c0.013-0.121,0.027-0.268,0.027-0.402c0-0.508-0.215-0.99-0.549-1.325L25.21,8l-8.217,8.217c-0.469,0.469-0.75,1.098-0.75,1.78v12.5
	c0,1.379,1.124,2.503,2.502,2.503h11.256c1.03,0,1.927-0.629,2.302-1.525l3.774-8.806c0.107-0.295,0.174-0.589,0.174-0.923V19.256
	L36.251,19.256z"/>
</svg>
