<?xml version="1.0" encoding="utf-8"?>
<!-- Generator: Adobe Illustrator 16.2.0, SVG Export Plug-In . SVG Version: 6.00 Build 0)  -->
<!DOCTYPE svg PUBLIC "-//W3C//DTD SVG 1.1//EN" "http://www.w3.org/Graphics/SVG/1.1/DTD/svg11.dtd">
<svg version="1.1" id="Layer_1" xmlns="http://www.w3.org/2000/svg" xmlns:xlink="http://www.w3.org/1999/xlink" x="0px" y="0px"
	 width="45px" height="45px" viewBox="0 0 45 45" enable-background="new 0 0 45 45" xml:space="preserve">
<path fill="#FFFFFF" d="M27.939,36.923c-0.398-0.397-0.604-0.894-0.604-1.497c0-0.591,0.206-1.085,0.604-1.482
	c0.412-0.412,0.92-0.618,1.523-0.618s1.112,0.207,1.525,0.618c0.412,0.397,0.617,0.893,0.617,1.482c0,0.604-0.205,1.1-0.617,1.497
	c-0.413,0.386-0.92,0.577-1.525,0.577S28.352,37.309,27.939,36.923z M27.665,32.83v-1.113c0-0.837,0.11-1.539,0.343-2.074
	c0.233-0.55,0.535-1.002,0.879-1.359c0.356-0.357,0.7-0.674,1.043-0.948c0.344-0.288,0.646-0.563,0.894-0.853
	c0.261-0.289,0.385-0.631,0.385-1.043s-0.138-0.756-0.426-1.029c-0.275-0.275-0.673-0.412-1.209-0.412
	c-0.659,0-1.154,0.207-1.47,0.631c-0.33,0.426-0.48,1.03-0.48,1.813h-3.502c0-1.262,0.232-2.334,0.688-3.213
	c0.467-0.866,1.112-1.512,1.937-1.951c0.81-0.439,1.758-0.659,2.829-0.659c1.113,0,2.033,0.207,2.789,0.632
	c0.769,0.426,1.346,1.002,1.729,1.731c0.398,0.728,0.591,1.552,0.591,2.458c0,0.701-0.096,1.277-0.302,1.73
	c-0.206,0.469-0.454,0.866-0.769,1.182c-0.303,0.33-0.618,0.617-0.934,0.894c-0.262,0.219-0.509,0.453-0.742,0.687
	c-0.234,0.234-0.426,0.494-0.578,0.783c-0.15,0.288-0.219,0.633-0.219,1.03v1.085H27.665z M10.317,29.768v-2.789
	c0-2.953,4.601-5.385,10.453-5.577c-0.454,1.085-0.701,2.266-0.701,3.489c0,1.799,0.522,3.489,1.388,4.875h-11.14V29.768z
	 M17.542,17.035c-2.17-2.184-2.17-5.714,0-7.897c2.184-2.184,5.714-2.184,7.897,0c1.963,1.964,2.156,5.055,0.563,7.238
	c-1.168,0.439-2.253,1.14-3.201,2.074c-0.014,0.027-0.042,0.055-0.069,0.069C20.934,18.93,18.957,18.436,17.542,17.035z"/>
</svg>
