<?xml version="1.0" encoding="utf-8"?>
<!-- Generator: Adobe Illustrator 16.2.0, SVG Export Plug-In . SVG Version: 6.00 Build 0)  -->
<!DOCTYPE svg PUBLIC "-//W3C//DTD SVG 1.1//EN" "http://www.w3.org/Graphics/SVG/1.1/DTD/svg11.dtd">
<svg version="1.1" id="Layer_1" xmlns="http://www.w3.org/2000/svg" xmlns:xlink="http://www.w3.org/1999/xlink" x="0px" y="0px"
	 width="45px" height="45px" viewBox="0 0 45 45" enable-background="new 0 0 45 45" xml:space="preserve">
<path fill-rule="evenodd" clip-rule="evenodd" fill="#0068DD" d="M28.873,39.657c-0.615-0.615-0.896-1.457-0.829-2.272l-7.221-3.745
	c-0.161,0.268-0.348,0.508-0.575,0.736c-1.578,1.578-4.159,1.578-5.736,0c-1.591-1.591-1.591-4.159,0-5.75
	c0.455-0.467,1.017-0.789,1.592-0.989l-1.324-9.494c-1.043,0-2.072-0.401-2.862-1.189c-1.591-1.592-1.591-4.159,0-5.75
	c1.578-1.578,4.158-1.578,5.736,0c0.963,0.963,1.337,2.273,1.137,3.517l8.812,4.413c0.428-0.361,0.909-0.615,1.431-0.776
	L27.829,10.2c-0.615-0.067-1.216-0.334-1.685-0.815c-1.123-1.11-1.123-2.929,0-4.052c1.11-1.11,2.928-1.11,4.051,0
	c1.11,1.123,1.11,2.942,0,4.052c-0.213,0.214-0.44,0.374-0.682,0.508l1.23,8.317c0.281,0.041,0.562,0.107,0.842,0.214
	c2.113,0.749,3.209,3.089,2.447,5.188c-0.749,2.113-3.075,3.209-5.188,2.461c-0.548-0.201-1.017-0.495-1.417-0.869L21.13,29.95
	c0.268,0.656,0.361,1.378,0.281,2.072l7.288,3.785c0.054-0.067,0.12-0.133,0.174-0.201c1.123-1.11,2.942-1.11,4.051,0
	c1.124,1.123,1.124,2.941,0,4.051C31.814,40.781,29.996,40.781,28.873,39.657z M20.154,28.532l6.312-4.747
	c-0.375-0.896-0.428-1.925-0.067-2.915c0.04-0.121,0.094-0.241,0.147-0.361l-8.37-4.185c-0.147,0.213-0.321,0.428-0.522,0.629
	c-0.347,0.36-0.762,0.641-1.203,0.828l1.364,9.682C18.656,27.556,19.485,27.917,20.154,28.532z"/>
</svg>
