<?xml version="1.0" encoding="utf-8"?>
<!-- Generator: Adobe Illustrator 16.2.0, SVG Export Plug-In . SVG Version: 6.00 Build 0)  -->
<!DOCTYPE svg PUBLIC "-//W3C//DTD SVG 1.1//EN" "http://www.w3.org/Graphics/SVG/1.1/DTD/svg11.dtd">
<svg version="1.1" id="Layer_1" xmlns="http://www.w3.org/2000/svg" xmlns:xlink="http://www.w3.org/1999/xlink" x="0px" y="0px"
	 width="25px" height="25px" viewBox="7.5 7.5 25 25" enable-background="new 7.5 7.5 25 25" xml:space="preserve">
<g>
	<path fill="#0036A6" d="M11.582,28.417c-4.652-4.644-4.652-12.192,0-16.836c4.644-4.651,12.192-4.651,16.836,0
		c4.651,4.644,4.651,12.192,0,16.836c-1.905,1.914-4.302,3.04-6.794,3.374h-3.247C15.884,31.458,13.487,30.331,11.582,28.417z"/>
	<path fill="#FFFFFF" d="M16.027,31.228v-5.843l-4.279,2.778c-1.183-1.254-2.04-2.707-2.579-4.247l0.071-0.039H8.732
		c-0.881-2.572-0.849-5.382,0.08-7.938h0.483l-0.063-0.04c0.563-1.523,1.444-2.96,2.643-4.199l4.152,2.699V8.772
		c2.564-0.905,5.382-0.905,7.938,0v5.541l4.604-2.993c0.097,0.087,0.183,0.175,0.271,0.262c1.127,1.126,1.984,2.428,2.564,3.818
		l-0.833,0.54h0.619c0.929,2.555,0.952,5.366,0.079,7.938h-0.644l0.85,0.548c-0.58,1.452-1.461,2.817-2.636,3.992
		c-0.039,0.048-0.088,0.088-0.127,0.127l-4.746-3.079v5.762C21.409,32.133,18.591,32.133,16.027,31.228z"/>
	<path fill="#DB0000" d="M17.52,31.649V8.351c1.635-0.341,3.325-0.341,4.961,0v23.298C20.846,31.989,19.154,31.989,17.52,31.649z
		 M9.764,26.084l3.398-2.207h2.913l-5.414,3.517C10.328,26.973,10.026,26.536,9.764,26.084z M30.315,26.632l-4.238-2.755h2.912
		l2.12,1.373C30.879,25.727,30.609,26.187,30.315,26.632z M10.938,15.939l-1.357-0.881c0.214-0.476,0.469-0.944,0.754-1.396
		l3.517,2.278H10.938z M23.87,15.939l5.35-3.477c0.341,0.413,0.651,0.849,0.921,1.293l-3.358,2.183H23.87z"/>
	<path fill="#DB0000" d="M8.375,17.408h23.25c0.356,1.627,0.373,3.326,0.048,4.961H8.328C8.002,20.734,8.018,19.036,8.375,17.408z"
		/>
	<path fill="#FFFFFF" d="M11.161,28.839c-4.882-4.874-4.882-12.796,0-17.678c4.874-4.882,12.796-4.882,17.678,0
		s4.882,12.803,0,17.678C23.957,33.72,16.035,33.72,11.161,28.839z M27.997,27.997c4.414-4.414,4.414-11.582,0-15.995
		s-11.582-4.414-15.995,0c-4.421,4.414-4.421,11.582,0,15.995C16.417,32.418,23.584,32.418,27.997,27.997z"/>
</g>
</svg>
