<?xml version="1.0" encoding="utf-8"?>
<!-- Generator: Adobe Illustrator 16.2.0, SVG Export Plug-In . SVG Version: 6.00 Build 0)  -->
<!DOCTYPE svg PUBLIC "-//W3C//DTD SVG 1.1//EN" "http://www.w3.org/Graphics/SVG/1.1/DTD/svg11.dtd">
<svg version="1.1" id="Layer_1" xmlns="http://www.w3.org/2000/svg" xmlns:xlink="http://www.w3.org/1999/xlink" x="0px" y="0px"
	 width="25px" height="25px" viewBox="7.5 7.5 25 25" enable-background="new 7.5 7.5 25 25" xml:space="preserve">
<g>
	<path fill="#FFFFFF" d="M11.583,11.581c4.643-4.643,12.192-4.643,16.835,0c1.302,1.302,2.238,2.826,2.81,4.453H8.774
		C9.346,14.407,10.282,12.883,11.583,11.581z"/>
	<path fill="#0036A6" d="M8.774,16.034h22.454c0.904,2.564,0.904,5.374,0,7.937H8.774C7.868,21.408,7.868,18.598,8.774,16.034z"/>
	<path fill="#DD0000" d="M11.583,28.424c-1.302-1.301-2.239-2.825-2.81-4.453h22.455c-0.572,1.628-1.509,3.152-2.811,4.453
		c-2.316,2.318-5.365,3.478-8.414,3.485h-0.007C16.949,31.901,13.901,30.742,11.583,28.424z"/>
	<path fill="#FFFFFF" d="M11.155,28.846c-4.874-4.882-4.874-12.803,0-17.685c4.881-4.881,12.802-4.881,17.684,0
		s4.882,12.803,0,17.685C23.958,33.719,16.036,33.719,11.155,28.846z M27.997,27.996c4.414-4.413,4.414-11.58,0-15.994
		c-4.413-4.413-11.58-4.413-15.993,0c-4.422,4.414-4.422,11.581,0,15.994C16.417,32.417,23.584,32.417,27.997,27.996z"/>
</g>
</svg>
