<?xml version="1.0" encoding="utf-8"?>
<!-- Generator: Adobe Illustrator 16.2.0, SVG Export Plug-In . SVG Version: 6.00 Build 0)  -->
<!DOCTYPE svg PUBLIC "-//W3C//DTD SVG 1.1//EN" "http://www.w3.org/Graphics/SVG/1.1/DTD/svg11.dtd">
<svg version="1.1" id="Layer_1" xmlns="http://www.w3.org/2000/svg" xmlns:xlink="http://www.w3.org/1999/xlink" x="0px" y="0px"
	 width="36px" height="36px" viewBox="0 0 36 36" enable-background="new 0 0 36 36" xml:space="preserve">
<path fill="#0068DD" d="M10.494,8.46C7.84,8.46,4.973,9.006,3,10.5v19.986c0,0.347,0.333,0.68,0.68,0.68
	c0.133,0,0.201-0.093,0.333-0.093c1.854-0.88,4.507-1.48,6.48-1.48c2.667,0,5.52,0.547,7.506,2.04c1.84-1.16,5.173-2.04,7.494-2.04
	c2.253,0,4.573,0.427,6.479,1.44c0.134,0.067,0.2,0.041,0.347,0.041c0.333,0,0.68-0.333,0.68-0.681V10.5
	c-0.827-0.613-1.707-1.027-2.734-1.36v2.72v7.507v8.187c-1.493-0.479-3.133-0.693-4.772-0.693c-2.32,0-5.654,0.894-7.494,2.054
	v-9.547v-6.133V10.5C16.013,9.006,13.16,8.46,10.494,8.46 M27.547,4.367L20.72,10.5v15l6.827-6.133V4.367L27.547,4.367z"/>
</svg>
