<?xml version="1.0" encoding="utf-8"?>
<!-- Generator: Adobe Illustrator 16.2.0, SVG Export Plug-In . SVG Version: 6.00 Build 0)  -->
<!DOCTYPE svg PUBLIC "-//W3C//DTD SVG 1.1//EN" "http://www.w3.org/Graphics/SVG/1.1/DTD/svg11.dtd">
<svg version="1.1" id="Layer_1" xmlns="http://www.w3.org/2000/svg" xmlns:xlink="http://www.w3.org/1999/xlink" x="0px" y="0px"
	 width="36px" height="36px" viewBox="0 0 36 36" enable-background="new 0 0 36 36" xml:space="preserve">
<path fill="#0068DD" d="M4.36,16.453C6.92,21.654,12.187,24.96,18,24.96c1.053,0,2.107-0.107,3.08-0.32l-3.52-3.547
	c-2.214-0.227-3.974-1.986-4.2-4.2l-5.253-5.267C6.574,12.934,5.293,14.573,4.36,16.453 M18,4.867c7.72,0,14.32,4.813,17,11.586
	c-1.267,3.214-3.426,6-6.187,8.027l-2.2-2.213c2.107-1.454,3.84-3.427,5.014-5.814C29.08,11.267,23.8,7.96,18,7.96
	c-1.693,0-3.346,0.28-4.893,0.773l-2.374-2.36C12.96,5.414,15.414,4.867,18,4.867 M18,11.827c2.547,0,4.627,2.066,4.627,4.626
	c0,0.547-0.094,1.066-0.254,1.547l-5.92-5.92C16.934,11.92,17.453,11.827,18,11.827 M2.533,6.054l1.987-1.96l25.84,25.84
	l-1.96,1.973l-4.76-4.76c-1.787,0.601-3.667,0.907-5.64,0.907c-7.733,0-14.333-4.8-17-11.601c1.066-2.72,2.76-5.106,4.92-7.013
	L2.533,6.054L2.533,6.054z"/>
</svg>
