<?xml version="1.0" encoding="utf-8"?>
<!-- Generator: Adobe Illustrator 16.2.0, SVG Export Plug-In . SVG Version: 6.00 Build 0)  -->
<!DOCTYPE svg PUBLIC "-//W3C//DTD SVG 1.1//EN" "http://www.w3.org/Graphics/SVG/1.1/DTD/svg11.dtd">
<svg version="1.1" id="Layer_1" xmlns="http://www.w3.org/2000/svg" xmlns:xlink="http://www.w3.org/1999/xlink" x="0px" y="0px"
	 width="36px" height="36px" viewBox="0 0 36 36" enable-background="new 0 0 36 36" xml:space="preserve">
<path fill="#0068DD" d="M18,25.7c1.533,0,2.8,1.253,2.8,2.8s-1.267,2.8-2.8,2.8c-0.453,0-0.867-0.093-1.24-0.293L11.373,28.5
	l5.387-2.507C17.133,25.793,17.547,25.7,18,25.7 M13.04,21.58l-1.973,1.973l-1.92-1.906c-1.2,1.546-2.013,3.413-2.266,5.453H9.6v2.8
	H4v-1.4c0-6.773,4.813-12.413,11.2-13.72V11.98L4,7.5V4.7h28v2.8l-11.2,4.48v2.799C27.187,16.087,32,21.727,32,28.5v1.4h-5.6v-2.8
	h2.707c-0.253-2.041-1.067-3.907-2.267-5.453l-1.92,1.906l-1.973-1.973l1.92-1.933c-1.547-1.201-3.427-2.014-5.467-2.267v2.72h-2.8
	v-2.72c-2.04,0.253-3.92,1.066-5.48,2.267L13.04,21.58L13.04,21.58z"/>
</svg>
