<?xml version="1.0" encoding="utf-8"?>
<!-- Generator: Adobe Illustrator 16.2.0, SVG Export Plug-In . SVG Version: 6.00 Build 0)  -->
<!DOCTYPE svg PUBLIC "-//W3C//DTD SVG 1.1//EN" "http://www.w3.org/Graphics/SVG/1.1/DTD/svg11.dtd">
<svg version="1.1" id="Layer_1" xmlns="http://www.w3.org/2000/svg" xmlns:xlink="http://www.w3.org/1999/xlink" x="0px" y="0px"
	 width="65px" height="64.806px" viewBox="0 0 65 64.806" enable-background="new 0 0 65 64.806" xml:space="preserve">
<g>
	<path fill-rule="evenodd" clip-rule="evenodd" fill="#FFFFFF" d="M27.278,11.979c3.745-3.386,7.104-9.637,0.453-11.649
		c-4.412-1.333-9.997,1.613-13.555,4.585C-1.592,18.163-9.615,63.426,19.561,64.719c11.795,0.52,17.554-8.676,20.992-14.128
		c0.813-1.626,0.027-1.986-1.426-0.879C20,64.186,5.419,52.083,5.246,38.222c7.184-7.451,16.914-13.782,26.217-15.848
		c3.04-0.679,1.014-2.705-2.585-2.239C18.294,21.535,8.565,28.879,4.699,31.785C5.419,23.161,9.031,8.02,19.64,6.674
		c2.333-0.294,6.398,0.586,5.438,4.572C25.065,12.339,25.305,13.151,27.278,11.979z"/>
	<path fill-rule="evenodd" clip-rule="evenodd" fill="#FFFFFF" d="M37.5,58.268c-0.546-11.063,8.491-21.446,13.582-30.775
		c0.92-1.652,0.307-2.972-1.213-1.972L36.114,36.209c-3.465,1.04-2.04-3.092-0.026-5.291c4.052-4.425,7.37-7.371,15.634-13.049
		c1.333-0.839,2.999-1.399,3.186,1.679c1.839,13.542,3.465,27.124,9.929,39.732c1.306,3.106-5.638,6.558-6.251,1.693
		c-0.346-2.798-0.853-4.785-1.999-8.57c-2.479,5.931-5.545,11.276-11.156,12.222C39.34,65.652,37.701,62.12,37.5,58.268z
		 M49.922,55.256c2.706-2.199,5.584-7.557,4.852-10.196c-0.866-3.132-1.906-5.784-2-10.689c-0.253-0.933-0.573-1.692-1.693-0.453
		c-3.559,4.625-5.824,9.21-8.117,13.968C40.206,53.657,41.006,62.52,49.922,55.256z"/>
	<path fill-rule="evenodd" clip-rule="evenodd" fill="#FFFFFF" d="M45.124,8.394c-2.878,1.439-3.505,3.279-1.985,5.504
		c0.52,1.133,1.599,1.932,5.051,1.373c0.92-1.025,1.626-2.319,1.679-3.972C48.803,9.299,47.43,7.94,45.124,8.394z"/>
	<path fill-rule="evenodd" clip-rule="evenodd" fill="#FFFFFF" d="M58.267,11.299c-0.121-3.732-1.307-4.544-3.052-3.812
		c-2.466,1.707-3.159,4.012-0.76,7.331C56.987,15.684,57.959,13.285,58.267,11.299z"/>
	<path fill-rule="evenodd" clip-rule="evenodd" fill="#FFFFFF" d="M51.469,7.207c1-0.146,1.879-0.986,2.599-2.906
		c-0.12-3.186-1.039-4.532-2.759-4.118C47.376,2.729,47.763,5.062,51.469,7.207z"/>
</g>
</svg>
