<?xml version="1.0" encoding="utf-8"?>
<!-- Generator: Adobe Illustrator 16.2.0, SVG Export Plug-In . SVG Version: 6.00 Build 0)  -->
<!DOCTYPE svg PUBLIC "-//W3C//DTD SVG 1.1//EN" "http://www.w3.org/Graphics/SVG/1.1/DTD/svg11.dtd">
<svg version="1.1" id="Layer_1" xmlns="http://www.w3.org/2000/svg" xmlns:xlink="http://www.w3.org/1999/xlink" x="0px" y="0px"
	 width="151px" height="72.51px" viewBox="0 0 151 72.51" enable-background="new 0 0 151 72.51" xml:space="preserve">
<path fill-rule="evenodd" clip-rule="evenodd" fill="#CCCCCC" d="M135.042,71.925c-1.053-0.88-1.2-2.452-0.307-3.519l7.891-9.451
	C60.716,68.886,24.538,41.28,0.398,3.85c-0.747-1.159-0.413-2.706,0.747-3.452c1.159-0.746,2.706-0.413,3.452,0.747
	c23.087,35.791,57.411,62.57,137.497,52.839c0.106-0.013,0.213-0.027,0.32-0.027l-9.731-8.104c-1.053-0.879-1.2-2.453-0.307-3.52
	c0.88-1.053,2.453-1.199,3.519-0.319l14.21,11.863c1.053,0.88,1.2,2.453,0.32,3.519l-11.864,14.209
	C137.682,72.672,136.109,72.818,135.042,71.925z M144.879,56.236l0.107-0.12l-0.147-0.121c0.013,0.053,0.027,0.107,0.027,0.16
	C144.879,56.183,144.879,56.209,144.879,56.236z"/>
</svg>
