<?xml version="1.0" encoding="utf-8"?>
<!-- Generator: Adobe Illustrator 16.2.0, SVG Export Plug-In . SVG Version: 6.00 Build 0)  -->
<!DOCTYPE svg PUBLIC "-//W3C//DTD SVG 1.1//EN" "http://www.w3.org/Graphics/SVG/1.1/DTD/svg11.dtd">
<svg version="1.1" id="Layer_1" xmlns="http://www.w3.org/2000/svg" xmlns:xlink="http://www.w3.org/1999/xlink" x="0px" y="0px"
	 width="78px" height="158.5px" viewBox="0 0 78 158.5" enable-background="new 0 0 78 158.5" xml:space="preserve">
<path fill-rule="evenodd" clip-rule="evenodd" fill="#CCCCCC" d="M20.761,158.481l-18.542-2.173
	c-1.373-0.16-2.373-1.413-2.199-2.799l2.172-18.542c0.174-1.386,1.427-2.372,2.8-2.212c1.386,0.173,2.373,1.412,2.213,2.798
	l-1.52,12.931l4.519-3.119C57.232,111.759,72.455,61.292,72.961,2.493C72.975,1.107,74.108-0.013,75.494,0
	C76.894,0.014,78,1.146,78,2.546c-0.52,59.625-16.009,111.986-64.837,146.896l-3.825,2.626l12.01,1.413
	c1.386,0.16,2.373,1.413,2.213,2.799C23.4,157.654,22.147,158.654,20.761,158.481z"/>
</svg>
