<?xml version="1.0" encoding="utf-8"?>
<!-- Generator: Adobe Illustrator 16.2.0, SVG Export Plug-In . SVG Version: 6.00 Build 0)  -->
<!DOCTYPE svg PUBLIC "-//W3C//DTD SVG 1.1//EN" "http://www.w3.org/Graphics/SVG/1.1/DTD/svg11.dtd">
<svg version="1.1" id="Layer_1" xmlns="http://www.w3.org/2000/svg" xmlns:xlink="http://www.w3.org/1999/xlink" x="0px" y="0px"
	 width="123px" height="139.548px" viewBox="0 0 123 139.548" enable-background="new 0 0 123 139.548" xml:space="preserve">
<g>
	<path fill-rule="evenodd" clip-rule="evenodd" fill="#0068DD" d="M0,72.421V33.084c0.027-3.467,1.307-6.974,3.708-9.668
		c1.747-1.96,4.133-3.507,6.974-4.147l2.56-0.306c13.188-0.827,26.923-7.535,38.964-15.802C54.166,1.947,56.873,0.4,60.727,0h1.414
		c3.774,0.387,6.561,1.867,8.507,3.081l0.253,0.173c11.922,8.161,25.669,14.882,38.844,15.708l2.561,0.306
		c2.854,0.654,5.227,2.187,6.974,4.147c2.414,2.694,3.68,6.201,3.721,9.668v39.337c0,20.722-10.108,47.338-58.713,67.127h-5.28
		C10.415,119.746,0,93.13,0,72.421z M108.999,72.421V33.164l-0.107-0.241c-14.802-0.906-29.11-7.427-40.978-14.895l-4.681-3.067
		l-1.387-0.748l-0.426-0.106l-0.24,0.066c-0.347,0.146-0.746,0.36-1.293,0.707c-12.602,8.628-28.87,17.002-45.805,18.042
		l-0.08,0.227v39.271c0,13.241,5.307,33.417,42.432,50.738l5.213,2.267l5.174-2.253C103.731,105.958,108.999,85.902,108.999,72.421z
		"/>
	<path fill-rule="evenodd" clip-rule="evenodd" fill="#FF5B00" d="M65.327,95.904l33.71-42.458
		c2.681-3.387,2.121-8.321-1.267-11.001c-3.387-2.694-8.321-2.121-11.001,1.267l-28.91,36.404L39.511,65.914
		c-3.427-2.654-8.347-2.027-10.987,1.4c-2.653,3.414-2.027,8.334,1.399,10.975l24.47,18.948
		C57.779,99.851,62.66,99.264,65.327,95.904z"/>
</g>
</svg>
