<?xml version="1.0" encoding="utf-8"?>
<!-- Generator: Adobe Illustrator 16.2.0, SVG Export Plug-In . SVG Version: 6.00 Build 0)  -->
<!DOCTYPE svg PUBLIC "-//W3C//DTD SVG 1.1//EN" "http://www.w3.org/Graphics/SVG/1.1/DTD/svg11.dtd">
<svg version="1.1" id="Layer_1" xmlns="http://www.w3.org/2000/svg" xmlns:xlink="http://www.w3.org/1999/xlink" x="0px" y="0px"
	 width="175px" height="175px" viewBox="0 0 175 175" enable-background="new 0 0 175 175" xml:space="preserve">
<g>
	<path fill-rule="evenodd" clip-rule="evenodd" fill="#FFFFFF" d="M80.03,58.273c5.344-4.838,10.156-13.781,0.64-16.66
		c-6.318-1.906-14.301,2.292-19.392,6.571c-22.564,18.952-34.026,83.712,7.716,85.552c16.874,0.746,25.11-12.409,30.015-20.218
		c1.173-2.333,0.041-2.826-2.026-1.267c-27.362,20.725-48.233,3.412-48.473-16.433C58.771,85.169,72.686,76.106,86,73.147
		c4.358-0.973,1.453-3.878-3.679-3.198C67.168,71.948,53.253,82.45,47.723,86.622c1.013-12.355,6.197-34.013,21.365-35.932
		c3.332-0.413,9.169,0.827,7.784,6.544C76.858,58.793,77.204,59.953,80.03,58.273z"/>
	<path fill-rule="evenodd" clip-rule="evenodd" fill="#FFFFFF" d="M94.65,124.513c-0.786-15.833,12.142-30.694,19.432-44.035
		c1.306-2.372,0.44-4.251-1.746-2.839l-19.671,15.3c-4.958,1.493-2.919-4.412-0.041-7.57c5.812-6.331,10.556-10.542,22.378-18.672
		c1.892-1.2,4.278-1.986,4.545,2.425c2.639,19.366,4.958,38.784,14.221,56.83c1.866,4.452-8.077,9.383-8.956,2.426
		c-0.507-4.012-1.226-6.864-2.853-12.262c-3.545,8.49-7.943,16.127-15.954,17.486C97.289,135.068,94.931,130.017,94.65,124.513z
		 M112.416,120.194c3.865-3.145,8.011-10.809,6.944-14.594c-1.239-4.465-2.719-8.264-2.865-15.287
		c-0.36-1.333-0.813-2.413-2.413-0.653c-5.091,6.624-8.343,13.181-11.608,19.992C98.529,117.916,99.662,130.577,112.416,120.194z"/>
	<path fill-rule="evenodd" clip-rule="evenodd" fill="#FFFFFF" d="M105.565,53.155c-4.131,2.053-5.024,4.679-2.839,7.877
		c0.733,1.613,2.279,2.759,7.211,1.959c1.306-1.466,2.332-3.318,2.398-5.677C110.817,54.448,108.845,52.489,105.565,53.155z"/>
	<path fill-rule="evenodd" clip-rule="evenodd" fill="#FFFFFF" d="M124.358,57.314c-0.173-5.345-1.866-6.505-4.371-5.465
		c-3.519,2.439-4.505,5.731-1.093,10.489C122.532,63.578,123.932,60.152,124.358,57.314z"/>
	<path fill-rule="evenodd" clip-rule="evenodd" fill="#FFFFFF" d="M114.629,51.45c1.439-0.201,2.705-1.413,3.718-4.146
		c-0.16-4.571-1.493-6.504-3.932-5.904C108.778,45.052,109.324,48.384,114.629,51.45z"/>
</g>
</svg>
