<?xml version="1.0" encoding="utf-8"?>
<!-- Generator: Adobe Illustrator 16.2.0, SVG Export Plug-In . SVG Version: 6.00 Build 0)  -->
<!DOCTYPE svg PUBLIC "-//W3C//DTD SVG 1.1//EN" "http://www.w3.org/Graphics/SVG/1.1/DTD/svg11.dtd">
<svg version="1.1" id="Layer_1" xmlns="http://www.w3.org/2000/svg" xmlns:xlink="http://www.w3.org/1999/xlink" x="0px" y="0px"
	 width="110px" height="110px" viewBox="0 0 110 110" enable-background="new 0 0 110 110" xml:space="preserve">
<path fill-rule="evenodd" clip-rule="evenodd" fill="#EDEDED" d="M22.5,83.24c0-2.347,1.907-4.253,4.267-4.253
	c0.613,0,1.2,0.121,1.72,0.36l2.587-2.586c-11.201-12.307-11.214-31.2,0-43.52l-2.587-2.573c-0.534,0.227-1.106,0.36-1.72,0.36
	c-2.36,0-4.267-1.907-4.267-4.267s1.907-4.266,4.267-4.266c2.346,0,4.266,1.906,4.266,4.266c0,0.613-0.133,1.187-0.373,1.72
	l2.586,2.586c12.32-11.213,31.213-11.213,43.533,0l2.547-2.56c-0.24-0.533-0.36-1.12-0.36-1.747c0-2.36,1.906-4.266,4.266-4.266
	c2.347,0,4.267,1.906,4.267,4.266s-1.92,4.267-4.267,4.267c-0.613,0-1.186-0.134-1.706-0.36l-2.574,2.573
	c11.213,12.32,11.213,31.213,0,43.534l2.574,2.56c0.52-0.227,1.093-0.347,1.706-0.347c2.347,0,4.267,1.907,4.267,4.253
	c0,2.36-1.92,4.267-4.267,4.267c-2.36,0-4.266-1.906-4.266-4.267c0-0.613,0.12-1.2,0.36-1.733l-2.56-2.56
	c-12.308,11.2-31.201,11.2-43.521,0l-2.586,2.586c0.24,0.52,0.373,1.107,0.373,1.707c0,2.36-1.92,4.267-4.266,4.267
	C24.407,87.506,22.5,85.6,22.5,83.24z M74.593,76.76l-4.054-4.053c-8.866,7.787-22.186,7.787-31.053,0l-4.053,4.053
	C46.54,86.773,63.487,86.773,74.593,76.76z M68.354,70.52l-4.067-4.053c-5.387,4.374-13.16,4.374-18.546,0l-4.067,4.053
	C49.327,77.107,60.7,77.107,68.354,70.52z M76.78,35.414l-4.066,4.066c7.787,8.854,7.787,22.187,0,31.053l4.054,4.053
	C86.78,63.48,86.78,46.533,76.78,35.414z M33.26,74.586l4.053-4.053c-7.786-8.867-7.786-22.187-0.013-31.053l-4.054-4.054
	C23.247,46.533,23.247,63.48,33.26,74.586z M70.54,41.653l-4.066,4.067c4.373,5.399,4.373,13.173,0,18.573l4.054,4.053
	C77.126,60.693,77.126,49.307,70.54,41.653z M39.487,68.346l4.066-4.066c-4.374-5.387-4.374-13.16,0-18.56l-4.066-4.054
	C32.9,49.32,32.9,60.693,39.487,68.346z M62.1,64.267l-7.094-7.081l-7.08,7.081C52.1,67.466,57.926,67.466,62.1,64.267z
	 M64.273,47.92L57.193,55l7.08,7.093C67.473,57.92,67.473,52.08,64.273,47.92z M45.753,62.093L52.833,55l-7.093-7.08
	C42.553,52.093,42.553,57.92,45.753,62.093z M55.006,52.827l7.094-7.094c-4.174-3.2-10.014-3.2-14.174,0L55.006,52.827z
	 M45.727,43.547c5.4-4.387,13.173-4.387,18.574,0l4.053-4.067c-7.654-6.6-19.041-6.587-26.693,0L45.727,43.547z M39.487,37.293
	c8.853-7.787,22.187-7.787,31.053,0l4.054-4.053c-11.106-10.013-28.054-10.013-39.16,0L39.487,37.293z"/>
</svg>
