<?xml version="1.0" encoding="utf-8"?>
<!-- Generator: Adobe Illustrator 16.2.0, SVG Export Plug-In . SVG Version: 6.00 Build 0)  -->
<!DOCTYPE svg PUBLIC "-//W3C//DTD SVG 1.1//EN" "http://www.w3.org/Graphics/SVG/1.1/DTD/svg11.dtd">
<svg version="1.1" id="Layer_1" xmlns="http://www.w3.org/2000/svg" xmlns:xlink="http://www.w3.org/1999/xlink" x="0px" y="0px"
	 width="135px" height="117.116px" viewBox="0 0 135 117.116" enable-background="new 0 0 135 117.116" xml:space="preserve">
<g>
	<path fill="#FF5B00" d="M67.494,87.773c-11.187,0-20.267-9.08-20.267-20.266c0-7.574,4.12-14.201,10.133-17.641l65.601-37.973
		L85.6,76.626C82.227,83.24,75.4,87.773,67.494,87.773L67.494,87.773z"/>
	<path fill="#0068DD" d="M19.773,115.213C7.547,103,0,86.133,0,67.507C0,30.227,30.213,0,67.494,0
		c12.173,0,23.546,3.359,33.453,8.853L86.88,16.96c-5.88-2.293-12.627-3.574-19.387-3.574c-29.893,0-54.12,24.227-54.12,54.121
		c0,14.946,6.027,28.466,15.827,38.213l0.027,0.014h0.067c2.587,2.613,2.587,6.813-0.027,9.426
		C26.667,117.76,22.373,117.76,19.773,115.213z M105.787,115.16c-2.613-2.613-2.613-6.84,0-9.44
		c9.8-9.813,15.827-23.267,15.827-38.213c0-6.761-1.28-13.507-3.64-19.587l8.093-14.066C131.64,43.96,135,55.267,135,67.507
		c0,18.626-7.574,35.493-19.787,47.706C112.613,117.76,108.387,117.76,105.787,115.16z"/>
</g>
</svg>
