<?xml version="1.0" encoding="utf-8"?>
<!-- Generator: Adobe Illustrator 16.2.0, SVG Export Plug-In . SVG Version: 6.00 Build 0)  -->
<!DOCTYPE svg PUBLIC "-//W3C//DTD SVG 1.1//EN" "http://www.w3.org/Graphics/SVG/1.1/DTD/svg11.dtd">
<svg version="1.1" id="Layer_1" xmlns="http://www.w3.org/2000/svg" xmlns:xlink="http://www.w3.org/1999/xlink" x="0px" y="0px"
	 width="1920px" height="476px" viewBox="0 0 1920 476" enable-background="new 0 0 1920 476" xml:space="preserve">
<g opacity="0.4">
	<path fill-rule="evenodd" clip-rule="evenodd" fill="#FFFFFF" d="M115.5,37c0-2.747,2.24-4.987,5-4.987c2.76,0,5,2.24,5,4.987
		c0,2.76-2.24,5-5,5C117.74,42,115.5,39.76,115.5,37z"/>
	<circle fill-rule="evenodd" clip-rule="evenodd" fill="#FFFFFF" cx="304.5" cy="88" r="5"/>
	<path fill-rule="evenodd" clip-rule="evenodd" fill="#FFFFFF" d="M103.5,283c0-2.747,2.24-4.987,5-4.987c2.76,0,5,2.24,5,4.987
		c0,2.76-2.24,5-5,5C105.74,288,103.5,285.76,103.5,283z"/>
	<path fill-rule="evenodd" clip-rule="evenodd" fill="#FFFFFF" d="M266.513,377c0-2.747,2.24-4.987,5-4.987
		c2.747,0,4.987,2.24,4.987,4.987c0,2.76-2.24,5-4.987,5C268.753,382,266.513,379.76,266.513,377z"/>
	<path fill-rule="evenodd" clip-rule="evenodd" fill="#FFFFFF" d="M263.5,471c0-2.747,2.24-4.987,5-4.987c2.76,0,5,2.24,5,4.987
		c0,2.76-2.24,5-5,5C265.74,476,263.5,473.76,263.5,471z"/>
	<path fill-rule="evenodd" clip-rule="evenodd" fill="#FFFFFF" d="M387.5,215c0-2.76,2.24-5,5-5c2.747,0,4.987,2.24,4.987,5
		c0,2.76-2.24,5-4.987,5C389.74,220,387.5,217.76,387.5,215z"/>
	<path fill-rule="evenodd" clip-rule="evenodd" fill="#FFFFFF" d="M492.5,278c0-2.747,2.24-4.987,5-4.987s5,2.24,5,4.987
		c0,2.76-2.24,5-5,5S492.5,280.76,492.5,278z"/>
	<path fill-rule="evenodd" clip-rule="evenodd" fill="#FFFFFF" d="M531.5,455c0-2.747,2.24-4.987,5-4.987s5,2.24,5,4.987
		c0,2.76-2.24,5-5,5S531.5,457.76,531.5,455z"/>
	<circle fill-rule="evenodd" clip-rule="evenodd" fill="#FFFFFF" cx="523.5" cy="378" r="5"/>
	<circle fill-rule="evenodd" clip-rule="evenodd" fill="#FFFFFF" cx="516.5" cy="33" r="5"/>
	<path fill-rule="evenodd" clip-rule="evenodd" fill="#FFFFFF" d="M578.5,99c0-2.747,2.24-4.987,5-4.987s5,2.24,5,4.987
		c0,2.76-2.24,5-5,5S578.5,101.76,578.5,99z"/>
	<path fill-rule="evenodd" clip-rule="evenodd" fill="#FFFFFF" d="M724.5,163c0-2.747,2.24-4.987,5-4.987s5,2.24,5,4.987
		c0,2.76-2.24,5-5,5S724.5,165.76,724.5,163z"/>
	<circle fill-rule="evenodd" clip-rule="evenodd" fill="#FFFFFF" cx="852.5" cy="18" r="5"/>
	<path fill-rule="evenodd" clip-rule="evenodd" fill="#FFFFFF" d="M831.5,168c0-2.747,2.24-4.987,5-4.987
		c2.747,0,4.987,2.24,4.987,4.987c0,2.76-2.24,5-4.987,5C833.74,173,831.5,170.76,831.5,168z"/>
	<path fill-rule="evenodd" clip-rule="evenodd" fill="#FFFFFF" d="M1042.5,265c0-2.747,2.24-4.987,5-4.987s5,2.24,5,4.987
		c0,2.76-2.24,5-5,5S1042.5,267.76,1042.5,265z"/>
	<circle fill-rule="evenodd" clip-rule="evenodd" fill="#FFFFFF" cx="1158.5" cy="159" r="5"/>
	<path fill-rule="evenodd" clip-rule="evenodd" fill="#FFFFFF" d="M1053.5,5c0-2.76,2.24-5,5-5c2.747,0,4.987,2.24,4.987,5
		c0,2.76-2.24,5-4.987,5C1055.74,10,1053.5,7.76,1053.5,5z"/>
	<circle fill-rule="evenodd" clip-rule="evenodd" fill="#FFFFFF" cx="769.5" cy="384" r="5"/>
	<path fill-rule="evenodd" clip-rule="evenodd" fill="#FFFFFF" d="M975.5,469c0-2.747,2.24-4.987,5-4.987s5,2.24,5,4.987
		c0,2.76-2.24,5-5,5S975.5,471.76,975.5,469z"/>
	<path fill-rule="evenodd" clip-rule="evenodd" fill="#FFFFFF" d="M1186.5,412c0-2.747,2.24-4.987,5-4.987
		c2.747,0,4.987,2.24,4.987,4.987c0,2.76-2.24,5-4.987,5C1188.74,417,1186.5,414.76,1186.5,412z"/>
	<path fill-rule="evenodd" clip-rule="evenodd" fill="#FFFFFF" d="M1218.5,248c0-2.76,2.24-5,5-5c2.747,0,4.987,2.24,4.987,5
		c0,2.76-2.24,5-4.987,5C1220.74,253,1218.5,250.76,1218.5,248z"/>
	<path fill-rule="evenodd" clip-rule="evenodd" fill="#FFFFFF" d="M1302.5,258c0-2.747,2.24-4.987,5-4.987s5,2.24,5,4.987
		c0,2.76-2.24,5-5,5S1302.5,260.76,1302.5,258z"/>
	<path fill-rule="evenodd" clip-rule="evenodd" fill="#FFFFFF" d="M1312.5,344c0-2.747,2.24-4.987,5-4.987s5,2.24,5,4.987
		c0,2.76-2.24,5-5,5S1312.5,346.76,1312.5,344z"/>
	<path fill-rule="evenodd" clip-rule="evenodd" fill="#FFFFFF" d="M1514.5,404c0-2.747,2.24-4.987,5-4.987s5,2.24,5,4.987
		c0,2.76-2.24,5-5,5S1514.5,406.76,1514.5,404z"/>
	<path fill-rule="evenodd" clip-rule="evenodd" fill="#FFFFFF" d="M1464.5,467c0-2.747,2.24-4.987,5-4.987
		c2.747,0,4.987,2.24,4.987,4.987c0,2.76-2.24,5-4.987,5C1466.74,472,1464.5,469.76,1464.5,467z"/>
	<path fill-rule="evenodd" clip-rule="evenodd" fill="#FFFFFF" d="M1350.5,147c0-2.76,2.24-5,5-5c2.747,0,4.987,2.24,4.987,5
		c0,2.76-2.24,5-4.987,5C1352.74,152,1350.5,149.76,1350.5,147z"/>
	<circle fill-rule="evenodd" clip-rule="evenodd" fill="#FFFFFF" cx="1414.5" cy="35" r="5"/>
	<path fill-rule="evenodd" clip-rule="evenodd" fill="#FFFFFF" d="M1569.5,33c0-2.76,2.24-5,5-5c2.747,0,4.987,2.24,4.987,5
		c0,2.76-2.24,5-4.987,5C1571.74,38,1569.5,35.76,1569.5,33z"/>
	<path fill-rule="evenodd" clip-rule="evenodd" fill="#FFFFFF" d="M1616.5,160c0-2.747,2.24-4.987,5-4.987s5,2.24,5,4.987
		c0,2.76-2.24,5-5,5S1616.5,162.76,1616.5,160z"/>
	<circle fill-rule="evenodd" clip-rule="evenodd" fill="#FFFFFF" cx="1772.5" cy="59" r="5"/>
	<path fill-rule="evenodd" clip-rule="evenodd" fill="#FFFFFF" d="M1837.5,103c0-2.747,2.239-4.987,5-4.987c2.76,0,5,2.24,5,4.987
		c0,2.76-2.24,5-5,5C1839.739,108,1837.5,105.76,1837.5,103z"/>
	<path fill-rule="evenodd" clip-rule="evenodd" fill="#FFFFFF" d="M1712.5,178c0-2.747,2.239-4.987,5-4.987
		c2.747,0,4.987,2.24,4.987,4.987c0,2.76-2.24,5-4.987,5C1714.739,183,1712.5,180.76,1712.5,178z"/>
	<path fill-rule="evenodd" clip-rule="evenodd" fill="#FFFFFF" d="M1692.5,298c0-2.76,2.239-5,5-5c2.747,0,4.987,2.24,4.987,5
		c0,2.76-2.24,5-4.987,5C1694.739,303,1692.5,300.76,1692.5,298z"/>
	<path fill-rule="evenodd" clip-rule="evenodd" fill="#FFFFFF" d="M1819.5,351c0-2.747,2.239-4.987,5-4.987c2.76,0,5,2.24,5,4.987
		c0,2.76-2.24,5-5,5C1821.739,356,1819.5,353.76,1819.5,351z"/>
	<circle fill-rule="evenodd" clip-rule="evenodd" fill="#FFFFFF" cx="1869.5" cy="253" r="5"/>
	<path fill-rule="evenodd" clip-rule="evenodd" fill="#FFFFFF" d="M1691.5,469c0-2.747,2.239-4.987,5-4.987
		c2.747,0,4.987,2.24,4.987,4.987c0,2.76-2.24,5-4.987,5C1693.739,474,1691.5,471.76,1691.5,469z"/>
	<circle fill-rule="evenodd" clip-rule="evenodd" fill="#FFFFFF" cx="91.5" cy="170" r="5"/>
	<circle fill-rule="evenodd" clip-rule="evenodd" fill="#FFFFFF" cx="50.5" cy="415" r="5"/>
</g>
</svg>
