<?xml version="1.0" encoding="utf-8"?>
<!-- Generator: Adobe Illustrator 16.2.0, SVG Export Plug-In . SVG Version: 6.00 Build 0)  -->
<!DOCTYPE svg PUBLIC "-//W3C//DTD SVG 1.1//EN" "http://www.w3.org/Graphics/SVG/1.1/DTD/svg11.dtd">
<svg version="1.1" id="Layer_1" xmlns="http://www.w3.org/2000/svg" xmlns:xlink="http://www.w3.org/1999/xlink" x="0px" y="0px"
	 width="1920px" height="576px" viewBox="0 0 1920 576" enable-background="new 0 0 1920 576" xml:space="preserve">
<g opacity="0.25">
	<path fill-rule="evenodd" clip-rule="evenodd" fill="#FFFFFF" d="M811.494,254c0-1.374,1.12-2.494,2.506-2.494
		c1.373,0,2.494,1.12,2.494,2.494c0,1.387-1.121,2.506-2.494,2.506C812.613,256.506,811.494,255.387,811.494,254z"/>
	<path fill-rule="evenodd" clip-rule="evenodd" fill="#FFFFFF" d="M228.013,21.507c0-1.387,1.12-2.507,2.493-2.507
		c1.387,0,2.507,1.12,2.507,2.507c0,1.374-1.12,2.493-2.507,2.493C229.133,24,228.013,22.88,228.013,21.507z"/>
	<path fill-rule="evenodd" clip-rule="evenodd" fill="#FFFFFF" d="M173.013,61.507c0-1.387,1.12-2.507,2.493-2.507
		c1.387,0,2.507,1.12,2.507,2.507c0,1.374-1.12,2.493-2.507,2.493C174.133,64,173.013,62.88,173.013,61.507z"/>
	<path fill-rule="evenodd" clip-rule="evenodd" fill="#FFFFFF" d="M46.013,45.507c0-1.387,1.12-2.507,2.493-2.507
		c1.387,0,2.507,1.12,2.507,2.507c0,1.374-1.12,2.493-2.507,2.493C47.133,48,46.013,46.88,46.013,45.507z"/>
	<path fill-rule="evenodd" clip-rule="evenodd" fill="#FFFFFF" d="M190,124.506c0-1.387,1.12-2.506,2.506-2.506
		c1.387,0,2.507,1.12,2.507,2.506c0,1.374-1.12,2.494-2.507,2.494C191.12,127,190,125.88,190,124.506z"/>
	<path fill-rule="evenodd" clip-rule="evenodd" fill="#FFFFFF" d="M243,94.506c0-1.387,1.12-2.506,2.506-2.506
		c1.387,0,2.507,1.12,2.507,2.506c0,1.374-1.12,2.494-2.507,2.494C244.12,97,243,95.88,243,94.506z"/>
	<path fill-rule="evenodd" clip-rule="evenodd" fill="#FFFFFF" d="M362,12.507c0-1.387,1.12-2.507,2.493-2.507
		c1.386,0,2.507,1.12,2.507,2.507c0,1.374-1.12,2.493-2.507,2.493C363.12,15,362,13.88,362,12.507z"/>
	<path fill-rule="evenodd" clip-rule="evenodd" fill="#FFFFFF" d="M434,39.507c0-1.387,1.12-2.507,2.493-2.507
		c1.386,0,2.507,1.12,2.507,2.507c0,1.374-1.12,2.493-2.507,2.493C435.12,42,434,40.88,434,39.507z"/>
	<path fill-rule="evenodd" clip-rule="evenodd" fill="#FFFFFF" d="M479,96.506c0-1.387,1.12-2.506,2.493-2.506
		c1.386,0,2.507,1.12,2.507,2.506c0,1.374-1.12,2.494-2.507,2.494C480.12,99,479,97.88,479,96.506z"/>
	<path fill-rule="evenodd" clip-rule="evenodd" fill="#FFFFFF" d="M550,18.507c0-1.387,1.12-2.507,2.493-2.507
		c1.386,0,2.507,1.12,2.507,2.507c0,1.374-1.12,2.493-2.507,2.493C551.12,21,550,19.88,550,18.507z"/>
	<path fill-rule="evenodd" clip-rule="evenodd" fill="#FFFFFF" d="M533,107.506c0-1.387,1.12-2.506,2.493-2.506
		c1.386,0,2.507,1.12,2.507,2.506c0,1.374-1.12,2.494-2.507,2.494C534.12,110,533,108.88,533,107.506z"/>
	<path fill-rule="evenodd" clip-rule="evenodd" fill="#FFFFFF" d="M511,186.506c0-1.387,1.12-2.506,2.493-2.506
		c1.386,0,2.507,1.12,2.507,2.506c0,1.374-1.12,2.494-2.507,2.494C512.12,189,511,187.88,511,186.506z"/>
	<path fill-rule="evenodd" clip-rule="evenodd" fill="#FFFFFF" d="M366,270.506c0-1.387,1.12-2.506,2.493-2.506
		c1.386,0,2.507,1.12,2.507,2.506c0,1.374-1.12,2.494-2.507,2.494C367.12,273,366,271.88,366,270.506z"/>
	<path fill-rule="evenodd" clip-rule="evenodd" fill="#FFFFFF" d="M312.013,208.506c0-1.387,1.12-2.506,2.493-2.506
		c1.387,0,2.507,1.12,2.507,2.506c0,1.374-1.12,2.494-2.507,2.494C313.133,211,312.013,209.88,312.013,208.506z"/>
	<path fill-rule="evenodd" clip-rule="evenodd" fill="#FFFFFF" d="M164.013,277.506c0-1.387,1.12-2.506,2.493-2.506
		c1.387,0,2.507,1.12,2.507,2.506c0,1.374-1.12,2.494-2.507,2.494C165.133,280,164.013,278.88,164.013,277.506z"/>
	<path fill-rule="evenodd" clip-rule="evenodd" fill="#FFFFFF" d="M163.013,221.506c0-1.387,1.12-2.506,2.493-2.506
		c1.387,0,2.507,1.12,2.507,2.506c0,1.374-1.12,2.494-2.507,2.494C164.133,224,163.013,222.88,163.013,221.506z"/>
	<path fill-rule="evenodd" clip-rule="evenodd" fill="#FFFFFF" d="M51.013,239.506c0-1.387,1.12-2.506,2.493-2.506
		c1.387,0,2.507,1.12,2.507,2.506c0,1.374-1.12,2.494-2.507,2.494C52.133,242,51.013,240.88,51.013,239.506z"/>
	<path fill-rule="evenodd" clip-rule="evenodd" fill="#FFFFFF" d="M30.013,169.506c0-1.387,1.12-2.506,2.493-2.506
		c1.387,0,2.507,1.12,2.507,2.506c0,1.374-1.12,2.494-2.507,2.494C31.133,172,30.013,170.88,30.013,169.506z"/>
	<path fill-rule="evenodd" clip-rule="evenodd" fill="#FFFFFF" d="M21,336.506c0-1.387,1.12-2.506,2.506-2.506
		c1.387,0,2.507,1.12,2.507,2.506c0,1.374-1.12,2.494-2.507,2.494C22.12,339,21,337.88,21,336.506z"/>
	<path fill-rule="evenodd" clip-rule="evenodd" fill="#FFFFFF" d="M94,341.506c0-1.387,1.12-2.506,2.506-2.506
		c1.387,0,2.507,1.12,2.507,2.506c0,1.374-1.12,2.494-2.507,2.494C95.12,344,94,342.88,94,341.506z"/>
	<path fill-rule="evenodd" clip-rule="evenodd" fill="#FFFFFF" d="M109,381.506c0-1.387,1.12-2.506,2.506-2.506
		c1.387,0,2.507,1.12,2.507,2.506c0,1.374-1.12,2.494-2.507,2.494C110.12,384,109,382.88,109,381.506z"/>
	<path fill-rule="evenodd" clip-rule="evenodd" fill="#FFFFFF" d="M152,347.506c0-1.387,1.12-2.506,2.506-2.506
		c1.387,0,2.507,1.12,2.507,2.506c0,1.374-1.12,2.494-2.507,2.494C153.12,350,152,348.88,152,347.506z"/>
	<path fill-rule="evenodd" clip-rule="evenodd" fill="#FFFFFF" d="M196.013,479.506c0-1.387,1.12-2.506,2.493-2.506
		c1.387,0,2.507,1.12,2.507,2.506c0,1.374-1.12,2.494-2.507,2.494C197.133,482,196.013,480.88,196.013,479.506z"/>
	<path fill-rule="evenodd" clip-rule="evenodd" fill="#FFFFFF" d="M121.013,470.506c0-1.387,1.12-2.506,2.493-2.506
		c1.387,0,2.507,1.12,2.507,2.506c0,1.374-1.12,2.494-2.507,2.494C122.133,473,121.013,471.88,121.013,470.506z"/>
	<path fill-rule="evenodd" clip-rule="evenodd" fill="#FFFFFF" d="M247.013,305.506c0-1.387,1.12-2.506,2.493-2.506
		c1.387,0,2.507,1.12,2.507,2.506c0,1.374-1.12,2.494-2.507,2.494C248.133,308,247.013,306.88,247.013,305.506z"/>
	<path fill-rule="evenodd" clip-rule="evenodd" fill="#FFFFFF" d="M329,338.506c0-1.387,1.12-2.506,2.493-2.506
		c1.386,0,2.507,1.12,2.507,2.506c0,1.374-1.12,2.494-2.507,2.494C330.12,341,329,339.88,329,338.506z"/>
	<path fill-rule="evenodd" clip-rule="evenodd" fill="#FFFFFF" d="M318.013,392.506c0-1.387,1.12-2.506,2.493-2.506
		c1.387,0,2.494,1.12,2.494,2.506c0,1.374-1.107,2.494-2.494,2.494C319.133,395,318.013,393.88,318.013,392.506z"/>
	<path fill-rule="evenodd" clip-rule="evenodd" fill="#FFFFFF" d="M357,442.506c0-1.387,1.12-2.506,2.493-2.506
		c1.386,0,2.507,1.12,2.507,2.506c0,1.374-1.12,2.494-2.507,2.494C358.12,445,357,443.88,357,442.506z"/>
	<path fill-rule="evenodd" clip-rule="evenodd" fill="#FFFFFF" d="M267.013,435.506c0-1.387,1.12-2.506,2.493-2.506
		c1.387,0,2.507,1.12,2.507,2.506c0,1.374-1.12,2.494-2.507,2.494C268.133,438,267.013,436.88,267.013,435.506z"/>
	<path fill-rule="evenodd" clip-rule="evenodd" fill="#FFFFFF" d="M334,485.506c0-1.387,1.12-2.506,2.493-2.506
		c1.386,0,2.507,1.12,2.507,2.506c0,1.374-1.12,2.494-2.507,2.494C335.12,488,334,486.88,334,485.506z"/>
	<path fill-rule="evenodd" clip-rule="evenodd" fill="#FFFFFF" d="M497,480.506c0-1.387,1.12-2.506,2.493-2.506
		c1.386,0,2.507,1.12,2.507,2.506c0,1.374-1.12,2.494-2.507,2.494C498.12,483,497,481.88,497,480.506z"/>
	<path fill-rule="evenodd" clip-rule="evenodd" fill="#FFFFFF" d="M447,432.506c0-1.387,1.12-2.506,2.493-2.506
		c1.386,0,2.507,1.12,2.507,2.506c0,1.374-1.12,2.494-2.507,2.494C448.12,435,447,433.88,447,432.506z"/>
	<path fill-rule="evenodd" clip-rule="evenodd" fill="#FFFFFF" d="M512,413.506c0-1.387,1.12-2.506,2.493-2.506
		c1.386,0,2.507,1.12,2.507,2.506c0,1.374-1.12,2.494-2.507,2.494C513.12,416,512,414.88,512,413.506z"/>
	<path fill-rule="evenodd" clip-rule="evenodd" fill="#FFFFFF" d="M434,312.506c0-1.387,1.12-2.506,2.493-2.506
		c1.386,0,2.507,1.12,2.507,2.506c0,1.374-1.12,2.494-2.507,2.494C435.12,315,434,313.88,434,312.506z"/>
	<path fill-rule="evenodd" clip-rule="evenodd" fill="#FFFFFF" d="M450,247.506c0-1.387,1.12-2.506,2.493-2.506
		c1.386,0,2.507,1.12,2.507,2.506c0,1.374-1.12,2.494-2.507,2.494C451.12,250,450,248.88,450,247.506z"/>
	<path fill-rule="evenodd" clip-rule="evenodd" fill="#FFFFFF" d="M430,181.506c0-1.387,1.12-2.506,2.493-2.506
		c1.386,0,2.507,1.12,2.507,2.506c0,1.374-1.12,2.494-2.507,2.494C431.12,184,430,182.88,430,181.506z"/>
	<path fill-rule="evenodd" clip-rule="evenodd" fill="#FFFFFF" d="M338,163.506c0-1.387,1.12-2.506,2.493-2.506
		c1.386,0,2.507,1.12,2.507,2.506c0,1.374-1.12,2.494-2.507,2.494C339.12,166,338,164.88,338,163.506z"/>
	<path fill-rule="evenodd" clip-rule="evenodd" fill="#FFFFFF" d="M501,2.507C501,1.12,502.12,0,503.493,0
		C504.88,0,506,1.12,506,2.507C506,3.88,504.88,5,503.493,5C502.12,5,501,3.88,501,2.507z"/>
	<path fill-rule="evenodd" clip-rule="evenodd" fill="#FFFFFF" d="M684,3.507C684,2.12,685.12,1,686.493,1
		C687.88,1,689,2.12,689,3.507C689,4.88,687.88,6,686.493,6C685.12,6,684,4.88,684,3.507z"/>
	<path fill-rule="evenodd" clip-rule="evenodd" fill="#FFFFFF" d="M635,99.506c0-1.387,1.12-2.506,2.493-2.506
		c1.386,0,2.507,1.12,2.507,2.506c0,1.374-1.12,2.494-2.507,2.494C636.12,102,635,100.88,635,99.506z"/>
	<path fill-rule="evenodd" clip-rule="evenodd" fill="#FFFFFF" d="M661,142.506c0-1.387,1.12-2.506,2.493-2.506
		c1.387,0,2.507,1.12,2.507,2.506c0,1.374-1.12,2.494-2.507,2.494C662.12,145,661,143.88,661,142.506z"/>
	<path fill-rule="evenodd" clip-rule="evenodd" fill="#FFFFFF" d="M624,187.506c0-1.387,1.12-2.506,2.493-2.506
		c1.386,0,2.507,1.12,2.507,2.506c0,1.374-1.12,2.494-2.507,2.494C625.12,190,624,188.88,624,187.506z"/>
	<path fill-rule="evenodd" clip-rule="evenodd" fill="#FFFFFF" d="M672,218.506c0-1.387,1.12-2.506,2.493-2.506
		c1.387,0,2.507,1.12,2.507,2.506c0,1.374-1.12,2.494-2.507,2.494C673.12,221,672,219.88,672,218.506z"/>
	<path fill-rule="evenodd" clip-rule="evenodd" fill="#FFFFFF" d="M832,191.506c0-1.387,1.12-2.506,2.494-2.506
		c1.387,0,2.506,1.12,2.506,2.506c0,1.374-1.12,2.494-2.506,2.494C833.12,194,832,192.88,832,191.506z"/>
	<path fill-rule="evenodd" clip-rule="evenodd" fill="#FFFFFF" d="M894,241.506c0-1.387,1.12-2.506,2.494-2.506
		c1.387,0,2.506,1.12,2.506,2.506c0,1.374-1.12,2.494-2.506,2.494C895.12,244,894,242.88,894,241.506z"/>
	<path fill-rule="evenodd" clip-rule="evenodd" fill="#FFFFFF" d="M906,294.506c0-1.387,1.12-2.506,2.494-2.506
		c1.387,0,2.506,1.12,2.506,2.506c0,1.374-1.12,2.494-2.506,2.494C907.12,297,906,295.88,906,294.506z"/>
	<path fill-rule="evenodd" clip-rule="evenodd" fill="#FFFFFF" d="M1018,314.506c0-1.387,1.12-2.506,2.494-2.506
		c1.387,0,2.506,1.12,2.506,2.506c0,1.374-1.12,2.494-2.506,2.494C1019.12,317,1018,315.88,1018,314.506z"/>
	<path fill-rule="evenodd" clip-rule="evenodd" fill="#FFFFFF" d="M971,253.506c0-1.387,1.12-2.506,2.494-2.506
		c1.387,0,2.506,1.12,2.506,2.506c0,1.374-1.12,2.494-2.506,2.494C972.12,256,971,254.88,971,253.506z"/>
	<path fill-rule="evenodd" clip-rule="evenodd" fill="#FFFFFF" d="M995,218.506c0-1.387,1.12-2.506,2.494-2.506
		c1.387,0,2.506,1.12,2.506,2.506c0,1.374-1.12,2.494-2.506,2.494C996.12,221,995,219.88,995,218.506z"/>
	<path fill-rule="evenodd" clip-rule="evenodd" fill="#FFFFFF" d="M1084,211.506c0-1.387,1.12-2.506,2.494-2.506
		c1.387,0,2.506,1.12,2.506,2.506c0,1.374-1.12,2.494-2.506,2.494C1085.12,214,1084,212.88,1084,211.506z"/>
	<path fill-rule="evenodd" clip-rule="evenodd" fill="#FFFFFF" d="M1188,216.506c0-1.387,1.12-2.506,2.494-2.506
		c1.387,0,2.506,1.12,2.506,2.506c0,1.374-1.12,2.494-2.506,2.494C1189.12,219,1188,217.88,1188,216.506z"/>
	<path fill-rule="evenodd" clip-rule="evenodd" fill="#FFFFFF" d="M1090,135.506c0-1.387,1.12-2.506,2.494-2.506
		c1.387,0,2.506,1.12,2.506,2.506c0,1.374-1.12,2.494-2.506,2.494C1091.12,138,1090,136.88,1090,135.506z"/>
	<path fill-rule="evenodd" clip-rule="evenodd" fill="#FFFFFF" d="M1147,87.506c0-1.387,1.12-2.506,2.494-2.506
		c1.387,0,2.506,1.12,2.506,2.506c0,1.374-1.12,2.494-2.506,2.494C1148.12,90,1147,88.88,1147,87.506z"/>
	<path fill-rule="evenodd" clip-rule="evenodd" fill="#FFFFFF" d="M1157,12.507c0-1.387,1.12-2.507,2.494-2.507
		c1.387,0,2.506,1.12,2.506,2.507c0,1.374-1.12,2.493-2.506,2.493C1158.12,15,1157,13.88,1157,12.507z"/>
	<path fill-rule="evenodd" clip-rule="evenodd" fill="#FFFFFF" d="M946,28.507c0-1.387,1.12-2.507,2.494-2.507
		c1.387,0,2.506,1.12,2.506,2.507c0,1.374-1.12,2.493-2.506,2.493C947.12,31,946,29.88,946,28.507z"/>
	<path fill-rule="evenodd" clip-rule="evenodd" fill="#FFFFFF" d="M932,5.507C932,4.12,933.12,3,934.494,3
		C935.88,3,937,4.12,937,5.507C937,6.88,935.88,8,934.494,8C933.12,8,932,6.88,932,5.507z"/>
	<path fill-rule="evenodd" clip-rule="evenodd" fill="#FFFFFF" d="M794,2.507C794,1.12,795.12,0,796.494,0
		C797.88,0,799,1.12,799,2.507C799,3.88,797.88,5,796.494,5C795.12,5,794,3.88,794,2.507z"/>
	<path fill-rule="evenodd" clip-rule="evenodd" fill="#FFFFFF" d="M800,445.506c0-1.387,1.12-2.506,2.494-2.506
		c1.387,0,2.506,1.12,2.506,2.506c0,1.374-1.12,2.494-2.506,2.494C801.12,448,800,446.88,800,445.506z"/>
	<path fill-rule="evenodd" clip-rule="evenodd" fill="#FFFFFF" d="M835,364.506c0-1.387,1.12-2.506,2.494-2.506
		c1.387,0,2.506,1.12,2.506,2.506c0,1.374-1.12,2.494-2.506,2.494C836.12,367,835,365.88,835,364.506z"/>
	<path fill-rule="evenodd" clip-rule="evenodd" fill="#FFFFFF" d="M697,323.506c0-1.387,1.12-2.506,2.493-2.506
		c1.387,0,2.507,1.12,2.507,2.506c0,1.374-1.12,2.494-2.507,2.494C698.12,326,697,324.88,697,323.506z"/>
	<path fill-rule="evenodd" clip-rule="evenodd" fill="#FFFFFF" d="M730,290.506c0-1.387,1.12-2.506,2.493-2.506
		c1.387,0,2.507,1.12,2.507,2.506c0,1.374-1.12,2.494-2.507,2.494C731.12,293,730,291.88,730,290.506z"/>
	<path fill-rule="evenodd" clip-rule="evenodd" fill="#FFFFFF" d="M717,379.506c0-1.387,1.12-2.506,2.493-2.506
		c1.387,0,2.507,1.12,2.507,2.506c0,1.374-1.12,2.494-2.507,2.494C718.12,382,717,380.88,717,379.506z"/>
	<path fill-rule="evenodd" clip-rule="evenodd" fill="#FFFFFF" d="M596,422.506c0-1.387,1.12-2.506,2.493-2.506
		c1.386,0,2.507,1.12,2.507,2.506c0,1.374-1.12,2.494-2.507,2.494C597.12,425,596,423.88,596,422.506z"/>
	<path fill-rule="evenodd" clip-rule="evenodd" fill="#FFFFFF" d="M571,370.506c0-1.387,1.12-2.506,2.493-2.506
		c1.386,0,2.507,1.12,2.507,2.506c0,1.374-1.12,2.494-2.507,2.494C572.12,373,571,371.88,571,370.506z"/>
	<path fill-rule="evenodd" clip-rule="evenodd" fill="#FFFFFF" d="M632,481.506c0-1.387,1.12-2.506,2.493-2.506
		c1.386,0,2.507,1.12,2.507,2.506c0,1.374-1.12,2.494-2.507,2.494C633.12,484,632,482.88,632,481.506z"/>
	<path fill-rule="evenodd" clip-rule="evenodd" fill="#FFFFFF" d="M602,323.506c0-1.387,1.12-2.506,2.493-2.506
		c1.386,0,2.507,1.12,2.507,2.506c0,1.374-1.12,2.494-2.507,2.494C603.12,326,602,324.88,602,323.506z"/>
	<path fill-rule="evenodd" clip-rule="evenodd" fill="#FFFFFF" d="M562,240.506c0-1.387,1.12-2.506,2.493-2.506
		c1.386,0,2.507,1.12,2.507,2.506c0,1.374-1.12,2.494-2.507,2.494C563.12,243,562,241.88,562,240.506z"/>
	<path fill-rule="evenodd" clip-rule="evenodd" fill="#FFFFFF" d="M892,470.506c0-1.387,1.12-2.506,2.494-2.506
		c1.387,0,2.506,1.12,2.506,2.506c0,1.374-1.12,2.494-2.506,2.494C893.12,473,892,471.88,892,470.506z"/>
	<path fill-rule="evenodd" clip-rule="evenodd" fill="#FFFFFF" d="M919,411.506c0-1.387,1.12-2.506,2.494-2.506
		c1.387,0,2.506,1.12,2.506,2.506c0,1.374-1.12,2.494-2.506,2.494C920.12,414,919,412.88,919,411.506z"/>
	<path fill-rule="evenodd" clip-rule="evenodd" fill="#FFFFFF" d="M995,428.506c0-1.387,1.12-2.506,2.494-2.506
		c1.387,0,2.506,1.12,2.506,2.506c0,1.374-1.12,2.494-2.506,2.494C996.12,431,995,429.88,995,428.506z"/>
	<path fill-rule="evenodd" clip-rule="evenodd" fill="#FFFFFF" d="M1043,480.506c0-1.387,1.12-2.506,2.494-2.506
		c1.387,0,2.506,1.12,2.506,2.506c0,1.374-1.12,2.494-2.506,2.494C1044.12,483,1043,481.88,1043,480.506z"/>
	<path fill-rule="evenodd" clip-rule="evenodd" fill="#FFFFFF" d="M1113,401.506c0-1.387,1.12-2.506,2.494-2.506
		c1.387,0,2.506,1.12,2.506,2.506c0,1.374-1.12,2.494-2.506,2.494C1114.12,404,1113,402.88,1113,401.506z"/>
	<path fill-rule="evenodd" clip-rule="evenodd" fill="#FFFFFF" d="M1192,348.506c0-1.387,1.12-2.506,2.494-2.506
		c1.387,0,2.506,1.12,2.506,2.506c0,1.374-1.12,2.494-2.506,2.494C1193.12,351,1192,349.88,1192,348.506z"/>
	<path fill-rule="evenodd" clip-rule="evenodd" fill="#FFFFFF" d="M1156,317.506c0-1.387,1.12-2.506,2.494-2.506
		c1.387,0,2.506,1.12,2.506,2.506c0,1.374-1.12,2.494-2.506,2.494C1157.12,320,1156,318.88,1156,317.506z"/>
	<path fill-rule="evenodd" clip-rule="evenodd" fill="#FFFFFF" d="M1258,333.506c0-1.387,1.12-2.506,2.494-2.506
		c1.387,0,2.506,1.12,2.506,2.506c0,1.374-1.12,2.494-2.506,2.494C1259.12,336,1258,334.88,1258,333.506z"/>
	<path fill-rule="evenodd" clip-rule="evenodd" fill="#FFFFFF" d="M1243,289.506c0-1.387,1.12-2.506,2.494-2.506
		c1.387,0,2.506,1.12,2.506,2.506c0,1.374-1.12,2.494-2.506,2.494C1244.12,292,1243,290.88,1243,289.506z"/>
	<path fill-rule="evenodd" clip-rule="evenodd" fill="#FFFFFF" d="M1366,294.506c0-1.387,1.12-2.506,2.494-2.506
		c1.387,0,2.506,1.12,2.506,2.506c0,1.374-1.12,2.494-2.506,2.494C1367.12,297,1366,295.88,1366,294.506z"/>
	<path fill-rule="evenodd" clip-rule="evenodd" fill="#FFFFFF" d="M1376,249.506c0-1.387,1.12-2.506,2.494-2.506
		c1.387,0,2.506,1.12,2.506,2.506c0,1.374-1.12,2.494-2.506,2.494C1377.12,252,1376,250.88,1376,249.506z"/>
	<path fill-rule="evenodd" clip-rule="evenodd" fill="#FFFFFF" d="M1499,333.506c0-1.387,1.12-2.506,2.494-2.506
		c1.387,0,2.506,1.12,2.506,2.506c0,1.374-1.12,2.494-2.506,2.494C1500.12,336,1499,334.88,1499,333.506z"/>
	<path fill-rule="evenodd" clip-rule="evenodd" fill="#FFFFFF" d="M1453,353.506c0-1.387,1.12-2.506,2.494-2.506
		c1.387,0,2.506,1.12,2.506,2.506c0,1.374-1.12,2.494-2.506,2.494C1454.12,356,1453,354.88,1453,353.506z"/>
	<path fill-rule="evenodd" clip-rule="evenodd" fill="#FFFFFF" d="M1495,400.506c0-1.387,1.12-2.506,2.494-2.506
		c1.387,0,2.506,1.12,2.506,2.506c0,1.374-1.12,2.494-2.506,2.494C1496.12,403,1495,401.88,1495,400.506z"/>
	<path fill-rule="evenodd" clip-rule="evenodd" fill="#FFFFFF" d="M1557,473.506c0-1.387,1.12-2.506,2.494-2.506
		c1.387,0,2.506,1.12,2.506,2.506c0,1.374-1.12,2.494-2.506,2.494C1558.12,476,1557,474.88,1557,473.506z"/>
	<path fill-rule="evenodd" clip-rule="evenodd" fill="#FFFFFF" d="M1441,433.506c0-1.387,1.12-2.506,2.494-2.506
		c1.387,0,2.506,1.12,2.506,2.506c0,1.374-1.12,2.494-2.506,2.494C1442.12,436,1441,434.88,1441,433.506z"/>
	<path fill-rule="evenodd" clip-rule="evenodd" fill="#FFFFFF" d="M1390,486.506c0-1.387,1.12-2.506,2.494-2.506
		c1.387,0,2.506,1.12,2.506,2.506c0,1.374-1.12,2.494-2.506,2.494C1391.12,489,1390,487.88,1390,486.506z"/>
	<path fill-rule="evenodd" clip-rule="evenodd" fill="#FFFFFF" d="M1288,484.506c0-1.387,1.12-2.506,2.494-2.506
		c1.387,0,2.506,1.12,2.506,2.506c0,1.374-1.12,2.494-2.506,2.494C1289.12,487,1288,485.88,1288,484.506z"/>
	<path fill-rule="evenodd" clip-rule="evenodd" fill="#FFFFFF" d="M1272,443.506c0-1.387,1.12-2.506,2.494-2.506
		c1.387,0,2.506,1.12,2.506,2.506c0,1.374-1.12,2.494-2.506,2.494C1273.12,446,1272,444.88,1272,443.506z"/>
	<path fill-rule="evenodd" clip-rule="evenodd" fill="#FFFFFF" d="M1225,459.506c0-1.387,1.12-2.506,2.494-2.506
		c1.387,0,2.506,1.12,2.506,2.506c0,1.374-1.12,2.494-2.506,2.494C1226.12,462,1225,460.88,1225,459.506z"/>
	<path fill-rule="evenodd" clip-rule="evenodd" fill="#FFFFFF" d="M1120,240.506c0-1.387,1.12-2.506,2.494-2.506
		c1.387,0,2.506,1.12,2.506,2.506c0,1.374-1.12,2.494-2.506,2.494C1121.12,243,1120,241.88,1120,240.506z"/>
	<path fill-rule="evenodd" clip-rule="evenodd" fill="#FFFFFF" d="M1264,118.506c0-1.387,1.12-2.506,2.494-2.506
		c1.387,0,2.506,1.12,2.506,2.506c0,1.374-1.12,2.494-2.506,2.494C1265.12,121,1264,119.88,1264,118.506z"/>
	<path fill-rule="evenodd" clip-rule="evenodd" fill="#FFFFFF" d="M1306,171.506c0-1.387,1.12-2.506,2.494-2.506
		c1.387,0,2.506,1.12,2.506,2.506c0,1.374-1.12,2.494-2.506,2.494C1307.12,174,1306,172.88,1306,171.506z"/>
	<path fill-rule="evenodd" clip-rule="evenodd" fill="#FFFFFF" d="M1422,204.506c0-1.387,1.12-2.506,2.494-2.506
		c1.387,0,2.506,1.12,2.506,2.506c0,1.374-1.12,2.494-2.506,2.494C1423.12,207,1422,205.88,1422,204.506z"/>
	<path fill-rule="evenodd" clip-rule="evenodd" fill="#FFFFFF" d="M1404,136.506c0-1.387,1.12-2.506,2.494-2.506
		c1.387,0,2.506,1.12,2.506,2.506c0,1.374-1.12,2.494-2.506,2.494C1405.12,139,1404,137.88,1404,136.506z"/>
	<path fill-rule="evenodd" clip-rule="evenodd" fill="#FFFFFF" d="M1465,88.506c0-1.387,1.12-2.506,2.494-2.506
		c1.387,0,2.506,1.12,2.506,2.506c0,1.374-1.12,2.494-2.506,2.494C1466.12,91,1465,89.88,1465,88.506z"/>
	<path fill-rule="evenodd" clip-rule="evenodd" fill="#FFFFFF" d="M1383,103.506c0-1.387,1.12-2.506,2.494-2.506
		c1.387,0,2.506,1.12,2.506,2.506c0,1.374-1.12,2.494-2.506,2.494C1384.12,106,1383,104.88,1383,103.506z"/>
	<path fill-rule="evenodd" clip-rule="evenodd" fill="#FFFFFF" d="M1374,50.507c0-1.387,1.12-2.507,2.494-2.507
		c1.387,0,2.506,1.12,2.506,2.507c0,1.374-1.12,2.493-2.506,2.493C1375.12,53,1374,51.88,1374,50.507z"/>
	<path fill-rule="evenodd" clip-rule="evenodd" fill="#FFFFFF" d="M1316,11.507c0-1.387,1.12-2.507,2.494-2.507
		c1.387,0,2.506,1.12,2.506,2.507c0,1.374-1.12,2.493-2.506,2.493C1317.12,14,1316,12.88,1316,11.507z"/>
	<path fill-rule="evenodd" clip-rule="evenodd" fill="#FFFFFF" d="M1470,18.507c0-1.387,1.12-2.507,2.494-2.507
		c1.387,0,2.506,1.12,2.506,2.507c0,1.374-1.12,2.493-2.506,2.493C1471.12,21,1470,19.88,1470,18.507z"/>
	<path fill-rule="evenodd" clip-rule="evenodd" fill="#FFFFFF" d="M1488,51.507c0-1.387,1.12-2.507,2.494-2.507
		c1.387,0,2.506,1.12,2.506,2.507c0,1.374-1.12,2.493-2.506,2.493C1489.12,54,1488,52.88,1488,51.507z"/>
	<path fill-rule="evenodd" clip-rule="evenodd" fill="#FFFFFF" d="M1519,6.507c0-1.387,1.12-2.507,2.494-2.507
		c1.387,0,2.506,1.12,2.506,2.507c0,1.374-1.12,2.493-2.506,2.493C1520.12,9,1519,7.88,1519,6.507z"/>
	<path fill-rule="evenodd" clip-rule="evenodd" fill="#FFFFFF" d="M1559,80.506c0-1.387,1.12-2.506,2.494-2.506
		c1.387,0,2.506,1.12,2.506,2.506c0,1.374-1.12,2.494-2.506,2.494C1560.12,83,1559,81.88,1559,80.506z"/>
	<path fill-rule="evenodd" clip-rule="evenodd" fill="#FFFFFF" d="M1609,60.507c0-1.387,1.12-2.507,2.494-2.507
		c1.387,0,2.506,1.12,2.506,2.507c0,1.374-1.12,2.493-2.506,2.493C1610.12,63,1609,61.88,1609,60.507z"/>
	<path fill-rule="evenodd" clip-rule="evenodd" fill="#FFFFFF" d="M1614,10.507c0-1.387,1.12-2.507,2.494-2.507
		c1.387,0,2.506,1.12,2.506,2.507c0,1.374-1.12,2.493-2.506,2.493C1615.12,13,1614,11.88,1614,10.507z"/>
	<path fill-rule="evenodd" clip-rule="evenodd" fill="#FFFFFF" d="M1659,9.507c0-1.387,1.12-2.507,2.494-2.507
		c1.387,0,2.506,1.12,2.506,2.507c0,1.374-1.12,2.493-2.506,2.493C1660.12,12,1659,10.88,1659,9.507z"/>
	<path fill-rule="evenodd" clip-rule="evenodd" fill="#FFFFFF" d="M1703,119.506c0-1.387,1.12-2.506,2.493-2.506
		c1.387,0,2.507,1.12,2.507,2.506c0,1.374-1.12,2.494-2.507,2.494C1704.12,122,1703,120.88,1703,119.506z"/>
	<path fill-rule="evenodd" clip-rule="evenodd" fill="#FFFFFF" d="M1646,123.506c0-1.387,1.12-2.506,2.494-2.506
		c1.387,0,2.506,1.12,2.506,2.506c0,1.374-1.12,2.494-2.506,2.494C1647.12,126,1646,124.88,1646,123.506z"/>
	<path fill-rule="evenodd" clip-rule="evenodd" fill="#FFFFFF" d="M1706,74.506c0-1.387,1.12-2.506,2.493-2.506
		c1.387,0,2.507,1.12,2.507,2.506c0,1.374-1.12,2.494-2.507,2.494C1707.12,77,1706,75.88,1706,74.506z"/>
	<path fill-rule="evenodd" clip-rule="evenodd" fill="#FFFFFF" d="M1740,123.506c0-1.387,1.12-2.506,2.493-2.506
		c1.387,0,2.507,1.12,2.507,2.506c0,1.374-1.12,2.494-2.507,2.494C1741.12,126,1740,124.88,1740,123.506z"/>
	<path fill-rule="evenodd" clip-rule="evenodd" fill="#FFFFFF" d="M1789,135.506c0-1.387,1.12-2.506,2.493-2.506
		c1.387,0,2.507,1.12,2.507,2.506c0,1.374-1.12,2.494-2.507,2.494C1790.12,138,1789,136.88,1789,135.506z"/>
	<path fill-rule="evenodd" clip-rule="evenodd" fill="#FFFFFF" d="M1799,67.506c0-1.387,1.12-2.506,2.493-2.506
		c1.387,0,2.507,1.12,2.507,2.506c0,1.374-1.12,2.494-2.507,2.494C1800.12,70,1799,68.88,1799,67.506z"/>
	<path fill-rule="evenodd" clip-rule="evenodd" fill="#FFFFFF" d="M1802,23.507c0-1.387,1.12-2.507,2.493-2.507
		c1.387,0,2.507,1.12,2.507,2.507c0,1.374-1.12,2.493-2.507,2.493C1803.12,26,1802,24.88,1802,23.507z"/>
	<path fill-rule="evenodd" clip-rule="evenodd" fill="#FFFFFF" d="M1843,14.507c0-1.387,1.12-2.507,2.493-2.507
		c1.387,0,2.507,1.12,2.507,2.507c0,1.374-1.12,2.493-2.507,2.493C1844.12,17,1843,15.88,1843,14.507z"/>
	<path fill-rule="evenodd" clip-rule="evenodd" fill="#FFFFFF" d="M1882,67.506c0-1.387,1.12-2.506,2.493-2.506
		c1.387,0,2.507,1.12,2.507,2.506c0,1.374-1.12,2.494-2.507,2.494C1883.12,70,1882,68.88,1882,67.506z"/>
	<path fill-rule="evenodd" clip-rule="evenodd" fill="#FFFFFF" d="M1865,156.506c0-1.387,1.12-2.506,2.493-2.506
		c1.387,0,2.507,1.12,2.507,2.506c0,1.374-1.12,2.494-2.507,2.494C1866.12,159,1865,157.88,1865,156.506z"/>
	<path fill-rule="evenodd" clip-rule="evenodd" fill="#FFFFFF" d="M1806,174.506c0-1.387,1.12-2.506,2.493-2.506
		c1.387,0,2.507,1.12,2.507,2.506c0,1.374-1.12,2.494-2.507,2.494C1807.12,177,1806,175.88,1806,174.506z"/>
	<path fill-rule="evenodd" clip-rule="evenodd" fill="#FFFFFF" d="M1745,171.506c0-1.387,1.12-2.506,2.493-2.506
		c1.387,0,2.507,1.12,2.507,2.506c0,1.374-1.12,2.494-2.507,2.494C1746.12,174,1745,172.88,1745,171.506z"/>
	<path fill-rule="evenodd" clip-rule="evenodd" fill="#FFFFFF" d="M1721,255.506c0-1.387,1.12-2.506,2.493-2.506
		c1.387,0,2.507,1.12,2.507,2.506c0,1.374-1.12,2.494-2.507,2.494C1722.12,258,1721,256.88,1721,255.506z"/>
	<path fill-rule="evenodd" clip-rule="evenodd" fill="#FFFFFF" d="M1630,231.506c0-1.387,1.12-2.506,2.494-2.506
		c1.387,0,2.506,1.12,2.506,2.506c0,1.374-1.12,2.494-2.506,2.494C1631.12,234,1630,232.88,1630,231.506z"/>
	<path fill-rule="evenodd" clip-rule="evenodd" fill="#FFFFFF" d="M1566,197.506c0-1.387,1.12-2.506,2.494-2.506
		c1.387,0,2.506,1.12,2.506,2.506c0,1.374-1.12,2.494-2.506,2.494C1567.12,200,1566,198.88,1566,197.506z"/>
	<path fill-rule="evenodd" clip-rule="evenodd" fill="#FFFFFF" d="M1610,335.506c0-1.387,1.12-2.506,2.494-2.506
		c1.387,0,2.506,1.12,2.506,2.506c0,1.374-1.12,2.494-2.506,2.494C1611.12,338,1610,336.88,1610,335.506z"/>
	<path fill-rule="evenodd" clip-rule="evenodd" fill="#FFFFFF" d="M1512,214.506c0-1.387,1.12-2.506,2.494-2.506
		c1.387,0,2.506,1.12,2.506,2.506c0,1.374-1.12,2.494-2.506,2.494C1513.12,217,1512,215.88,1512,214.506z"/>
	<path fill-rule="evenodd" clip-rule="evenodd" fill="#FFFFFF" d="M1494,241.506c0-1.387,1.12-2.506,2.494-2.506
		c1.387,0,2.506,1.12,2.506,2.506c0,1.374-1.12,2.494-2.506,2.494C1495.12,244,1494,242.88,1494,241.506z"/>
	<path fill-rule="evenodd" clip-rule="evenodd" fill="#FFFFFF" d="M1655,434.506c0-1.387,1.12-2.506,2.494-2.506
		c1.387,0,2.506,1.12,2.506,2.506c0,1.374-1.12,2.494-2.506,2.494C1656.12,437,1655,435.88,1655,434.506z"/>
	<path fill-rule="evenodd" clip-rule="evenodd" fill="#FFFFFF" d="M1615,410.506c0-1.387,1.12-2.506,2.494-2.506
		c1.387,0,2.506,1.12,2.506,2.506c0,1.374-1.12,2.494-2.506,2.494C1616.12,413,1615,411.88,1615,410.506z"/>
	<path fill-rule="evenodd" clip-rule="evenodd" fill="#FFFFFF" d="M1630,368.506c0-1.387,1.12-2.506,2.494-2.506
		c1.387,0,2.506,1.12,2.506,2.506c0,1.374-1.12,2.494-2.506,2.494C1631.12,371,1630,369.88,1630,368.506z"/>
	<path fill-rule="evenodd" clip-rule="evenodd" fill="#FFFFFF" d="M1806,372.506c0-1.387,1.12-2.506,2.493-2.506
		c1.387,0,2.507,1.12,2.507,2.506c0,1.374-1.12,2.494-2.507,2.494C1807.12,375,1806,373.88,1806,372.506z"/>
	<path fill-rule="evenodd" clip-rule="evenodd" fill="#FFFFFF" d="M1751,350.506c0-1.387,1.12-2.506,2.493-2.506
		c1.387,0,2.507,1.12,2.507,2.506c0,1.374-1.12,2.494-2.507,2.494C1752.12,353,1751,351.88,1751,350.506z"/>
	<path fill-rule="evenodd" clip-rule="evenodd" fill="#FFFFFF" d="M1809,293.506c0-1.387,1.12-2.506,2.493-2.506
		c1.387,0,2.507,1.12,2.507,2.506c0,1.374-1.12,2.494-2.507,2.494C1810.12,296,1809,294.88,1809,293.506z"/>
	<path fill-rule="evenodd" clip-rule="evenodd" fill="#FFFFFF" d="M1814,239.506c0-1.387,1.12-2.506,2.493-2.506
		c1.387,0,2.507,1.12,2.507,2.506c0,1.374-1.12,2.494-2.507,2.494C1815.12,242,1814,240.88,1814,239.506z"/>
	<path fill-rule="evenodd" clip-rule="evenodd" fill="#FFFFFF" d="M1875,326.506c0-1.387,1.12-2.506,2.493-2.506
		c1.387,0,2.507,1.12,2.507,2.506c0,1.374-1.12,2.494-2.507,2.494C1876.12,329,1875,327.88,1875,326.506z"/>
	<path fill-rule="evenodd" clip-rule="evenodd" fill="#FFFFFF" d="M1852,383.506c0-1.387,1.12-2.506,2.493-2.506
		c1.387,0,2.507,1.12,2.507,2.506c0,1.374-1.12,2.494-2.507,2.494C1853.12,386,1852,384.88,1852,383.506z"/>
	<path fill-rule="evenodd" clip-rule="evenodd" fill="#FFFFFF" d="M1894,433.506c0-1.387,1.12-2.506,2.493-2.506
		c1.387,0,2.507,1.12,2.507,2.506c0,1.374-1.12,2.494-2.507,2.494C1895.12,436,1894,434.88,1894,433.506z"/>
	<path fill-rule="evenodd" clip-rule="evenodd" fill="#FFFFFF" d="M1826,420.506c0-1.387,1.12-2.506,2.493-2.506
		c1.387,0,2.507,1.12,2.507,2.506c0,1.374-1.12,2.494-2.507,2.494C1827.12,423,1826,421.88,1826,420.506z"/>
	<path fill-rule="evenodd" clip-rule="evenodd" fill="#FFFFFF" d="M1808,495.506c0-1.387,1.12-2.506,2.493-2.506
		c1.387,0,2.507,1.12,2.507,2.506c0,1.374-1.12,2.494-2.507,2.494C1809.12,498,1808,496.88,1808,495.506z"/>
	<path fill-rule="evenodd" clip-rule="evenodd" fill="#FFFFFF" d="M1758,462.506c0-1.387,1.12-2.506,2.493-2.506
		c1.387,0,2.507,1.12,2.507,2.506c0,1.374-1.12,2.494-2.507,2.494C1759.12,465,1758,463.88,1758,462.506z"/>
	<path fill-rule="evenodd" clip-rule="evenodd" fill="#FFFFFF" d="M1720,491.506c0-1.387,1.12-2.506,2.493-2.506
		c1.387,0,2.507,1.12,2.507,2.506c0,1.374-1.12,2.494-2.507,2.494C1721.12,494,1720,492.88,1720,491.506z"/>
	<path fill-rule="evenodd" clip-rule="evenodd" fill="#FFFFFF" d="M1648,493.506c0-1.387,1.12-2.506,2.494-2.506
		c1.387,0,2.506,1.12,2.506,2.506c0,1.374-1.12,2.494-2.506,2.494C1649.12,496,1648,494.88,1648,493.506z"/>
	<path fill-rule="evenodd" clip-rule="evenodd" fill="#FFFFFF" d="M1827,544.506c0-1.387,1.12-2.506,2.493-2.506
		c1.387,0,2.507,1.12,2.507,2.506c0,1.374-1.12,2.494-2.507,2.494C1828.12,547,1827,545.88,1827,544.506z"/>
	<path fill-rule="evenodd" clip-rule="evenodd" fill="#FFFFFF" d="M1712,537.506c0-1.387,1.12-2.506,2.493-2.506
		c1.387,0,2.507,1.12,2.507,2.506c0,1.374-1.12,2.494-2.507,2.494C1713.12,540,1712,538.88,1712,537.506z"/>
	<path fill-rule="evenodd" clip-rule="evenodd" fill="#FFFFFF" d="M1286,570.506c0-1.387,1.12-2.506,2.494-2.506
		c1.387,0,2.506,1.12,2.506,2.506c0,1.374-1.12,2.494-2.506,2.494C1287.12,573,1286,571.88,1286,570.506z"/>
	<path fill-rule="evenodd" clip-rule="evenodd" fill="#FFFFFF" d="M614,541.506c0-1.387,1.12-2.506,2.493-2.506
		c1.386,0,2.507,1.12,2.507,2.506c0,1.374-1.12,2.494-2.507,2.494C615.12,544,614,542.88,614,541.506z"/>
	<path fill-rule="evenodd" clip-rule="evenodd" fill="#FFFFFF" d="M192.013,573.506c0-1.387,1.12-2.506,2.493-2.506
		c1.387,0,2.507,1.12,2.507,2.506c0,1.374-1.12,2.494-2.507,2.494C193.133,576,192.013,574.88,192.013,573.506z"/>
	<path fill-rule="evenodd" clip-rule="evenodd" fill="#FFFFFF" d="M60.013,517.506c0-1.387,1.12-2.506,2.493-2.506
		c1.387,0,2.507,1.12,2.507,2.506c0,1.374-1.12,2.494-2.507,2.494C61.133,520,60.013,518.88,60.013,517.506z"/>
	<path fill-rule="evenodd" clip-rule="evenodd" fill="#FFFFFF" d="M151,544.506c0-1.387,1.12-2.506,2.506-2.506
		c1.387,0,2.507,1.12,2.507,2.506c0,1.374-1.12,2.494-2.507,2.494C152.12,547,151,545.88,151,544.506z"/>
</g>
</svg>
