<?xml version="1.0" encoding="utf-8"?>
<!-- Generator: Adobe Illustrator 16.2.0, SVG Export Plug-In . SVG Version: 6.00 Build 0)  -->
<!DOCTYPE svg PUBLIC "-//W3C//DTD SVG 1.1//EN" "http://www.w3.org/Graphics/SVG/1.1/DTD/svg11.dtd">
<svg version="1.1" id="Layer_1" xmlns="http://www.w3.org/2000/svg" xmlns:xlink="http://www.w3.org/1999/xlink" x="0px" y="0px"
	 width="135px" height="145.374px" viewBox="0 0 135 145.374" enable-background="new 0 0 135 145.374" xml:space="preserve">
<g>
	<path fill-rule="evenodd" clip-rule="evenodd" fill="#FF5B00" d="M66.76,145.374L8.707,111.867V44.841L66.76,11.32l58.053,33.521
		v67.026L66.76,145.374z M66.76,136.44l50.307-29.04V49.308L66.76,20.267L16.453,49.308V107.4L66.76,136.44z"/>
	<path fill="#0068DD" d="M27.48,132.547L0,116.681V84.947l27.48-15.866l27.479,15.866v31.733L27.48,132.547z M107.506,132.547
		l-27.479-15.866V84.947l27.479-15.866L135,84.947v31.733L107.506,132.547z M66.76,63.468L39.28,47.601V15.867L66.76,0l27.48,15.867
		v31.733L66.76,63.468z"/>
</g>
</svg>
